<?xml version="1.0" standalone="yes"?>

<svg version="1.1" viewBox="0.0 100.0 960.0 300.0" fill="none" stroke="none" stroke-linecap="square" stroke-miterlimit="10" xmlns="http://www.w3.org/2000/svg" xmlns:xlink="http://www.w3.org/1999/xlink"><clipPath id="g2a5babea5e_0_23.0"><path d="m0 0l960.0 0l0 540.0l-960.0 0l0 -540.0z" clip-rule="nonzero"></path></clipPath><g clip-path="url(#g2a5babea5e_0_23.0)"><path fill="#000000" fill-opacity="0.0" d="m0 0l960.0 0l0 540.0l-960.0 0z" fill-rule="evenodd"></path><path fill="#d9ead3" d="m69.608925 236.2546l475.18112 0l0 83.464554l-475.18112 0z" fill-rule="evenodd"></path><path stroke="#000000" stroke-width="1.0" stroke-linejoin="round" stroke-linecap="butt" d="m69.608925 236.2546l475.18112 0l0 83.464554l-475.18112 0z" fill-rule="evenodd"></path><path fill="#000000" d="m80.983925 262.39334l0 -9.296875l-1.046875 0q-0.28125 0 -0.40625 -0.09375q-0.109375 -0.109375 -0.109375 -0.296875q0 -0.171875 0.109375 -0.28125q0.125 -0.109375 0.40625 -0.109375l4.890625 0q1.46875 0 2.375 0.84375q0.921875 0.84375 0.921875 1.96875q0 1.4375 -1.53125 2.3125q1.203125 0.4375 1.765625 1.171875q0.578125 0.71875 0.578125 1.578125q0 0.78125 -0.375 1.4375q-0.375 0.640625 -1.140625 1.09375q-0.765625 0.453125 -1.65625 0.453125l-5.828125 0q-0.28125 0 -0.40625 -0.109375q-0.109375 -0.109375 -0.109375 -0.28125q0 -0.171875 0.109375 -0.28125q0.125 -0.109375 0.40625 -0.109375l1.046875 0zm0.78125 -5.25l2.75 0q0.890625 0 1.625 -0.328125q0.5625 -0.25 0.875 -0.734375q0.3125 -0.5 0.3125 -1.015625q0 -0.734375 -0.6875 -1.34375q-0.6875 -0.625 -1.78125 -0.625l-3.09375 0l0 4.046875zm0 5.25l3.9375 0q0.75 0 1.3125 -0.328125q0.5625 -0.34375 0.84375 -0.828125q0.28125 -0.5 0.28125 -1.015625q0 -0.59375 -0.40625 -1.15625q-0.40625 -0.5625 -1.140625 -0.84375q-0.734375 -0.28125 -2.03125 -0.28125l-2.796875 0l0 4.453125zm18.308105 -3.21875q0 1.78125 -1.28125 3.046875q-1.28125 1.265625 -3.078125 1.265625q-1.8125 0 -3.09375 -1.265625q-1.265625 -1.28125 -1.265625 -3.046875q0 -1.78125 1.265625 -3.046875q1.28125 -1.265625 3.09375 -1.265625q1.796875 0 3.078125 1.265625q1.28125 1.25 1.28125 3.046875zm-0.796875 0q0 -1.46875 -1.046875 -2.5q-1.03125 -1.03125 -2.515625 -1.03125q-1.484375 0 -2.53125 1.046875q-1.046875 1.03125 -1.046875 2.484375q0 1.453125 1.046875 2.5q1.046875 1.03125 2.53125 1.03125q1.484375 0 2.515625 -1.03125q1.046875 -1.046875 1.046875 -2.5zm8.370605 -0.203125l3.578125 3.421875q0.34375 0 0.4375 0.03125q0.09375 0.03125 0.15625 0.140625q0.078125 0.09375 0.078125 0.21875q0 0.171875 -0.125 0.28125q-0.109375 0.109375 -0.40625 0.109375l-2.5 0q-0.296875 0 -0.421875 -0.109375q-0.109375 -0.109375 -0.109375 -0.28125q0 -0.171875 0.109375 -0.28125q0.125 -0.109375 0.421875 -0.109375l1.28125 0l-3.03125 -2.90625l-3.015625 2.90625l1.296875 0q0.28125 0 0.40625 0.109375q0.125 0.109375 0.125 0.28125q0 0.171875 -0.125 0.28125q-0.125 0.109375 -0.40625 0.109375l-2.53125 0q-0.28125 0 -0.40625 -0.109375q-0.109375 -0.109375 -0.109375 -0.28125q0 -0.125 0.0625 -0.21875q0.078125 -0.109375 0.15625 -0.140625q0.09375 -0.03125 0.453125 -0.03125l3.5625 -3.421875l-3.171875 -3.046875q-0.328125 0 -0.421875 -0.03125q-0.078125 -0.03125 -0.15625 -0.140625q-0.0625 -0.109375 -0.0625 -0.21875q0 -0.171875 0.109375 -0.28125q0.125 -0.109375 0.421875 -0.109375l2.125 0q0.28125 0 0.390625 0.109375q0.125 0.109375 0.125 0.28125q0 0.171875 -0.125 0.28125q-0.109375 0.109375 -0.390625 0.109375l-0.9375 0l2.625 2.53125l2.640625 -2.53125l-0.921875 0q-0.28125 0 -0.40625 -0.109375q-0.125 -0.109375 -0.125 -0.28125q0 -0.171875 0.125 -0.28125q0.125 -0.109375 0.40625 -0.109375l2.125 0q0.28125 0 0.390625 0.109375q0.125 0.109375 0.125 0.28125q0 0.109375 -0.078125 0.21875q-0.0625 0.109375 -0.15625 0.140625q-0.078125 0.03125 -0.40625 0.03125l-3.1875 3.046875zm10.776855 -0.421875q0 -1.0625 0.28125 -2.25q0.28125 -1.203125 1.0625 -2.765625q0.796875 -1.578125 1.15625 -1.90625q0.109375 -0.09375 0.234375 -0.09375q0.171875 0 0.28125 0.109375q0.125 0.109375 0.125 0.265625q0 0.09375 -0.0625 0.203125q-1.03125 1.875 -1.46875 3.40625q-0.421875 1.515625 -0.421875 3.03125q0 1.53125 0.421875 3.0625q0.4375 1.515625 1.46875 3.375q0.0625 0.125 0.0625 0.203125q0 0.171875 -0.125 0.28125q-0.109375 0.109375 -0.28125 0.109375q-0.125 0 -0.234375 -0.09375q-0.34375 -0.3125 -1.125 -1.84375q-0.78125 -1.53125 -1.078125 -2.703125q-0.296875 -1.1875 -0.296875 -2.390625zm8.97998 -3.40625l0 1.171875q0.8124924 -0.828125 1.4687424 -1.140625q0.65625 -0.3125 1.484375 -0.3125q0.890625 0 1.625 0.375q0.515625 0.28125 0.9375 0.9375q0.421875 0.640625 0.421875 1.3125l0 4.90625l0.65625 0q0.28125 0 0.40625 0.109375q0.125 0.109375 0.125 0.28125q0 0.171875 -0.125 0.28125q-0.125 0.109375 -0.40625 0.109375l-2.078125 0q-0.296875 0 -0.421875 -0.109375q-0.109375 -0.109375 -0.109375 -0.28125q0 -0.171875 0.109375 -0.28125q0.125 -0.109375 0.421875 -0.109375l0.640625 0l0 -4.78125q0 -0.828125 -0.609375 -1.390625q-0.59375 -0.578125 -1.609375 -0.578125q-0.765625 0 -1.328125 0.3125q-0.5625 0.3125 -1.6093674 1.546875l0 4.890625l0.8749924 0q0.28125 0 0.390625 0.109375q0.125 0.109375 0.125 0.28125q0 0.171875 -0.125 0.28125q-0.109375 0.109375 -0.390625 0.109375l-2.5468674 0q-0.265625 0 -0.390625 -0.109375q-0.125 -0.109375 -0.125 -0.28125q0 -0.171875 0.125 -0.28125q0.125 -0.109375 0.390625 -0.109375l0.890625 0l0 -6.46875l-0.65625 0q-0.28125 0 -0.40625 -0.109375q-0.125 -0.109375 -0.125 -0.28125q0 -0.171875 0.125 -0.28125q0.125 -0.109375 0.40625 -0.109375l1.4375 0zm10.979973 0l0 1.421875q0.6875 -0.84375 1.484375 -1.265625q0.8125 -0.4375 1.890625 -0.4375q1.15625 0 2.125 0.546875q0.96875 0.53125 1.5 1.5q0.546875 0.953125 0.546875 2.0q0 1.6875 -1.203125 2.890625q-1.203125 1.1875 -2.953125 1.1875q-2.09375 0 -3.390625 -1.703125l0 4.6875l1.890625 0q0.28125 0 0.390625 0.109375q0.125 0.109375 0.125 0.28125q0 0.171875 -0.125 0.28125q-0.109375 0.109375 -0.390625 0.109375l-3.71875 0q-0.28125 0 -0.40625 -0.109375q-0.109375 -0.09375 -0.109375 -0.28125q0 -0.171875 0.109375 -0.28125q0.125 -0.109375 0.40625 -0.109375l1.046875 0l0 -10.046875l-1.046875 0q-0.28125 0 -0.40625 -0.109375q-0.109375 -0.109375 -0.109375 -0.28125q0 -0.171875 0.109375 -0.28125q0.125 -0.109375 0.40625 -0.109375l1.828125 0zm6.75 3.765625q0 -1.34375 -0.984375 -2.296875q-0.96875 -0.96875 -2.375 -0.96875q-1.421875 0 -2.40625 0.96875q-0.984375 0.96875 -0.984375 2.296875q0 1.359375 0.984375 2.328125q0.984375 0.953125 2.40625 0.953125q1.390625 0 2.375 -0.953125q0.984375 -0.96875 0.984375 -2.328125zm7.4174805 2.03125l0.34375 0q0.515625 0 0.890625 0.375q0.375 0.359375 0.375 0.875q0 0.53125 -0.375 0.90625q-0.375 0.359375 -0.890625 0.359375l-0.34375 0q-0.515625 0 -0.890625 -0.359375q-0.359375 -0.375 -0.359375 -0.890625q0 -0.546875 0.375 -0.90625q0.375 -0.359375 0.875 -0.359375zm9.058105 -5.796875l0 1.171875q0.8125 -0.828125 1.46875 -1.140625q0.65625 -0.3125 1.484375 -0.3125q0.890625 0 1.625 0.375q0.515625 0.28125 0.9375 0.9375q0.421875 0.640625 0.421875 1.3125l0 4.90625l0.65625 0q0.28125 0 0.40625 0.109375q0.125 0.109375 0.125 0.28125q0 0.171875 -0.125 0.28125q-0.125 0.109375 -0.40625 0.109375l-2.078125 0q-0.296875 0 -0.421875 -0.109375q-0.109375 -0.109375 -0.109375 -0.28125q0 -0.171875 0.109375 -0.28125q0.125 -0.109375 0.421875 -0.109375l0.640625 0l0 -4.78125q0 -0.828125 -0.609375 -1.390625q-0.59375 -0.578125 -1.609375 -0.578125q-0.765625 0 -1.328125 0.3125q-0.5625 0.3125 -1.609375 1.546875l0 4.890625l0.875 0q0.28125 0 0.390625 0.109375q0.125 0.109375 0.125 0.28125q0 0.171875 -0.125 0.28125q-0.109375 0.109375 -0.390625 0.109375l-2.546875 0q-0.265625 0 -0.390625 -0.109375q-0.125 -0.109375 -0.125 -0.28125q0 -0.171875 0.125 -0.28125q0.125 -0.109375 0.390625 -0.109375l0.890625 0l0 -6.46875l-0.65625 0q-0.28125 0 -0.40625 -0.109375q-0.125 -0.109375 -0.125 -0.28125q0 -0.171875 0.125 -0.28125q0.125 -0.109375 0.40625 -0.109375l1.4375 0zm17.72998 -3.609375l0 10.859375l1.046875 0q0.28125 0 0.40625 0.109375q0.125 0.109375 0.125 0.28125q0 0.171875 -0.125 0.28125q-0.125 0.109375 -0.40625 0.109375l-1.828125 0l0 -1.546875q-1.359375 1.859375 -3.453125 1.859375q-1.046875 0 -2.015625 -0.5625q-0.96875 -0.5625 -1.53125 -1.59375q-0.5625 -1.046875 -0.5625 -2.15625q0 -1.109375 0.5625 -2.140625q0.5625 -1.046875 1.53125 -1.609375q0.96875 -0.5625 2.03125 -0.5625q2.046875 0 3.4375 1.859375l0 -4.40625l-1.046875 0q-0.28125 0 -0.40625 -0.109375q-0.125 -0.109375 -0.125 -0.28125q0 -0.171875 0.125 -0.28125q0.125 -0.109375 0.40625 -0.109375l1.828125 0zm-0.78125 7.640625q0 -1.484375 -1.015625 -2.5q-1.0 -1.03125 -2.375 -1.03125q-1.390625 0 -2.390625 1.03125q-1.0 1.015625 -1.0 2.5q0 1.46875 1.0 2.5q1.0 1.03125 2.390625 1.03125q1.375 0 2.375 -1.03125q1.015625 -1.03125 1.015625 -2.5zm10.60498 4.0l0 -1.125q-1.6875 1.4375 -3.625 1.4375q-1.40625 0 -2.1875 -0.703125q-0.78125 -0.71875 -0.78125 -1.75q0 -1.140625 1.03125 -1.984375q1.046875 -0.84375 3.03125 -0.84375q0.546875 0 1.171875 0.078125q0.625 0.0625 1.359375 0.21875l0 -1.265625q0 -0.640625 -0.59375 -1.109375q-0.59375 -0.484375 -1.78125 -0.484375q-0.90625 0 -2.546875 0.53125q-0.296875 0.09375 -0.375 0.09375q-0.15625 0 -0.265625 -0.109375q-0.109375 -0.109375 -0.109375 -0.28125q0 -0.15625 0.09375 -0.25q0.140625 -0.140625 1.0625 -0.375q1.4375 -0.390625 2.1875 -0.390625q1.46875 0 2.296875 0.734375q0.828125 0.71875 0.828125 1.640625l0 5.15625l1.03125 0q0.296875 0 0.40625 0.109375q0.125 0.109375 0.125 0.28125q0 0.171875 -0.125 0.28125q-0.109375 0.109375 -0.40625 0.109375l-1.828125 0zm0 -3.875q-0.546875 -0.15625 -1.15625 -0.234375q-0.609375 -0.078125 -1.28125 -0.078125q-1.703125 0 -2.65625 0.734375q-0.734375 0.546875 -0.734375 1.3125q0 0.703125 0.546875 1.1875q0.5625 0.484375 1.625 0.484375q1.0 0 1.859375 -0.40625q0.875 -0.40625 1.796875 -1.28125l0 -1.71875zm8.22998 -4.15625l0 1.96875q1.53125 -1.375 2.28125 -1.765625q0.75 -0.40625 1.390625 -0.40625q0.703125 0 1.296875 0.46875q0.59375 0.46875 0.59375 0.71875q0 0.171875 -0.109375 0.296875q-0.109375 0.109375 -0.296875 0.109375q-0.09375 0 -0.15625 -0.03125q-0.0625 -0.03125 -0.234375 -0.21875q-0.328125 -0.3125 -0.578125 -0.4375q-0.234375 -0.125 -0.46875 -0.125q-0.5 0 -1.21875 0.40625q-0.71875 0.40625 -2.5 2.0l0 4.265625l3.453125 0q0.28125 0 0.40625 0.109375q0.125 0.109375 0.125 0.28125q0 0.171875 -0.125 0.28125q-0.125 0.109375 -0.40625 0.109375l-6.109375 0q-0.28125 0 -0.40625 -0.109375q-0.109375 -0.109375 -0.109375 -0.265625q0 -0.15625 0.109375 -0.265625q0.109375 -0.109375 0.40625 -0.109375l1.875 0l0 -6.5l-1.4375 0q-0.28125 0 -0.40625 -0.109375q-0.109375 -0.109375 -0.109375 -0.28125q0 -0.171875 0.109375 -0.28125q0.125 -0.109375 0.40625 -0.109375l2.21875 0zm11.401855 0l0 1.96875q1.53125 -1.375 2.28125 -1.765625q0.75 -0.40625 1.390625 -0.40625q0.703125 0 1.296875 0.46875q0.59375 0.46875 0.59375 0.71875q0 0.171875 -0.109375 0.296875q-0.109375 0.109375 -0.296875 0.109375q-0.09375 0 -0.15625 -0.03125q-0.0625 -0.03125 -0.234375 -0.21875q-0.328125 -0.3125 -0.578125 -0.4375q-0.234375 -0.125 -0.46875 -0.125q-0.5 0 -1.21875 0.40625q-0.71875 0.40625 -2.5 2.0l0 4.265625l3.453125 0q0.28125 0 0.40625 0.109375q0.125 0.109375 0.125 0.28125q0 0.171875 -0.125 0.28125q-0.125 0.109375 -0.40625 0.109375l-6.109375 0q-0.28125 0 -0.40625 -0.109375q-0.109375 -0.109375 -0.109375 -0.265625q0 -0.15625 0.109375 -0.265625q0.109375 -0.109375 0.40625 -0.109375l1.875 0l0 -6.5l-1.4375 0q-0.28125 0 -0.40625 -0.109375q-0.109375 -0.109375 -0.109375 -0.28125q0 -0.171875 0.109375 -0.28125q0.125 -0.109375 0.40625 -0.109375l2.21875 0zm14.57373 8.03125l0 -1.125q-1.6875 1.4375 -3.625 1.4375q-1.40625 0 -2.1875 -0.703125q-0.78125 -0.71875 -0.78125 -1.75q0 -1.140625 1.03125 -1.984375q1.046875 -0.84375 3.03125 -0.84375q0.546875 0 1.171875 0.078125q0.625 0.0625 1.359375 0.21875l0 -1.265625q0 -0.640625 -0.59375 -1.109375q-0.59375 -0.484375 -1.78125 -0.484375q-0.90625 0 -2.546875 0.53125q-0.296875 0.09375 -0.375 0.09375q-0.15625 0 -0.265625 -0.109375q-0.109375 -0.109375 -0.109375 -0.28125q0 -0.15625 0.09375 -0.25q0.140625 -0.140625 1.0625 -0.375q1.4375 -0.390625 2.1875 -0.390625q1.46875 0 2.296875 0.734375q0.828125 0.71875 0.828125 1.640625l0 5.15625l1.03125 0q0.296875 0 0.40625 0.109375q0.125 0.109375 0.125 0.28125q0 0.171875 -0.125 0.28125q-0.109375 0.109375 -0.40625 0.109375l-1.828125 0zm0 -3.875q-0.546875 -0.15625 -1.15625 -0.234375q-0.609375 -0.078125 -1.28125 -0.078125q-1.703125 0 -2.65625 0.734375q-0.734375 0.546875 -0.734375 1.3125q0 0.703125 0.546875 1.1875q0.5625 0.484375 1.625 0.484375q1.0 0 1.859375 -0.40625q0.875 -0.40625 1.796875 -1.28125l0 -1.71875zm9.214355 3.875l-3.609375 -7.25l-0.234375 0q-0.28125 0 -0.40625 -0.109375q-0.125 -0.109375 -0.125 -0.28125q0 -0.109375 0.0625 -0.203125q0.0625 -0.109375 0.15625 -0.140625q0.109375 -0.046875 0.3125 -0.046875l2.125 0q0.28125 0 0.40625 0.109375q0.125 0.109375 0.125 0.28125q0 0.171875 -0.125 0.28125q-0.125 0.109375 -0.40625 0.109375l-1.046875 0l3.1875 6.390625l3.140625 -6.390625l-1.0625 0q-0.265625 0 -0.390625 -0.109375q-0.125 -0.109375 -0.125 -0.28125q0 -0.171875 0.125 -0.28125q0.125 -0.109375 0.390625 -0.109375l2.125 0q0.296875 0 0.40625 0.109375q0.125 0.109375 0.125 0.28125q0 0.125 -0.078125 0.234375q-0.0625 0.09375 -0.15625 0.125q-0.09375 0.03125 -0.515625 0.03125l-4.9375 10.046875l1.203125 0q0.28125 0 0.40625 0.109375q0.125 0.109375 0.125 0.28125q0 0.171875 -0.125 0.28125q-0.125 0.109375 -0.40625 0.109375l-4.484375 0q-0.28125 0 -0.40625 -0.109375q-0.109375 -0.09375 -0.109375 -0.28125q0 -0.171875 0.109375 -0.28125q0.125 -0.109375 0.40625 -0.109375l2.4375 0l1.375 -2.796875zm11.57373 -4.609375q0 1.0625 -0.28125 2.265625q-0.265625 1.1875 -1.0625 2.75q-0.78125 1.578125 -1.140625 1.890625q-0.109375 0.109375 -0.25 0.109375q-0.15625 0 -0.28125 -0.109375q-0.109375 -0.109375 -0.109375 -0.28125q0 -0.078125 0.0625 -0.203125q1.015625 -1.859375 1.453125 -3.375q0.4375 -1.53125 0.4375 -3.046875q0 -1.53125 -0.4375 -3.046875q-0.4375 -1.53125 -1.453125 -3.40625q-0.0625 -0.109375 -0.0625 -0.203125q0 -0.15625 0.109375 -0.265625q0.125 -0.109375 0.28125 -0.109375q0.140625 0 0.25 0.09375q0.34375 0.328125 1.109375 1.859375q0.78125 1.515625 1.078125 2.703125q0.296875 1.171875 0.296875 2.375z" fill-rule="nonzero"></path><path fill="#c9daf8" d="m157.15749 278.8058l80.40944 0l0 30.64566l-80.40944 0z" fill-rule="evenodd"></path><path stroke="#000000" stroke-width="1.0" stroke-linejoin="round" stroke-linecap="butt" d="m157.15749 278.8058l80.40944 0l0 30.64566l-80.40944 0z" fill-rule="evenodd"></path><path fill="#000000" d="m175.32936 304.37924l-8.734375 0q-0.234375 0 -0.34375 -0.09375q-0.09375 -0.09375 -0.09375 -0.234375q0 -0.15625 0.09375 -0.25q0.109375 -0.078125 0.34375 -0.078125l8.734375 0q0.234375 0 0.328125 0.078125q0.109375 0.09375 0.109375 0.25q0 0.140625 -0.109375 0.234375q-0.09375 0.09375 -0.328125 0.09375zm3.8828125 -11.15625l3.5625 0q0.234375 0 0.328125 0.09375q0.109375 0.09375 0.109375 0.234375q0 0.140625 -0.109375 0.234375q-0.09375 0.09375 -0.328125 0.09375l-3.5625 0l0 4.375q0 0.5625 0.453125 0.953125q0.46875 0.375 1.34375 0.375q0.671875 0 1.4375 -0.1875q0.78125 -0.203125 1.203125 -0.453125q0.15625 -0.109375 0.265625 -0.109375q0.125 0 0.21875 0.109375q0.09375 0.09375 0.09375 0.21875q0 0.125 -0.109375 0.21875q-0.25 0.265625 -1.21875 0.578125q-0.953125 0.296875 -1.84375 0.296875q-1.140625 0 -1.828125 -0.546875q-0.671875 -0.546875 -0.671875 -1.453125l0 -4.375l-1.21875 0q-0.234375 0 -0.34375 -0.09375q-0.09375 -0.09375 -0.09375 -0.234375q0 -0.140625 0.09375 -0.234375q0.109375 -0.09375 0.34375 -0.09375l1.21875 0l0 -1.9375q0 -0.234375 0.09375 -0.328125q0.09375 -0.109375 0.234375 -0.109375q0.140625 0 0.234375 0.109375q0.09375 0.09375 0.09375 0.328125l0 1.9375zm10.1640625 0l0 1.65625q1.28125 -1.15625 1.921875 -1.484375q0.640625 -0.34375 1.171875 -0.34375q0.59375 0 1.09375 0.40625q0.5 0.390625 0.5 0.59375q0 0.140625 -0.09375 0.25q-0.09375 0.09375 -0.25 0.09375q-0.078125 0 -0.140625 -0.03125q-0.046875 -0.03125 -0.1875 -0.171875q-0.28125 -0.28125 -0.484375 -0.375q-0.203125 -0.109375 -0.390625 -0.109375q-0.4375 0 -1.046875 0.34375q-0.59375 0.34375 -2.09375 1.6875l0 3.59375l2.90625 0q0.25 0 0.34375 0.09375q0.109375 0.078125 0.109375 0.234375q0 0.140625 -0.109375 0.234375q-0.09375 0.09375 -0.34375 0.09375l-5.140625 0q-0.234375 0 -0.34375 -0.09375q-0.09375 -0.09375 -0.09375 -0.234375q0 -0.125 0.09375 -0.21875q0.09375 -0.09375 0.34375 -0.09375l1.578125 0l0 -5.46875l-1.203125 0q-0.234375 0 -0.34375 -0.09375q-0.09375 -0.09375 -0.09375 -0.234375q0 -0.140625 0.09375 -0.234375q0.09375 -0.09375 0.34375 -0.09375l1.859375 0zm12.2734375 6.765625l0 -0.953125q-1.421875 1.21875 -3.046875 1.21875q-1.1875 0 -1.859375 -0.59375q-0.65625 -0.609375 -0.65625 -1.484375q0 -0.953125 0.875 -1.65625q0.875 -0.71875 2.5625 -0.71875q0.453125 0 0.984375 0.0625q0.53125 0.0625 1.140625 0.1875l0 -1.0625q0 -0.546875 -0.5 -0.9375q-0.5 -0.40625 -1.5 -0.40625q-0.765625 0 -2.140625 0.453125q-0.25 0.078125 -0.328125 0.078125q-0.125 0 -0.21875 -0.09375q-0.078125 -0.09375 -0.078125 -0.234375q0 -0.140625 0.078125 -0.21875q0.109375 -0.109375 0.875 -0.3125q1.21875 -0.328125 1.84375 -0.328125q1.25 0 1.9375 0.609375q0.703125 0.609375 0.703125 1.390625l0 4.34375l0.875 0q0.234375 0 0.328125 0.09375q0.109375 0.078125 0.109375 0.234375q0 0.140625 -0.109375 0.234375q-0.09375 0.09375 -0.328125 0.09375l-1.546875 0zm0 -3.265625q-0.453125 -0.140625 -0.96875 -0.203125q-0.515625 -0.0625 -1.09375 -0.0625q-1.421875 0 -2.234375 0.625q-0.609375 0.453125 -0.609375 1.09375q0 0.59375 0.46875 1.0q0.46875 0.40625 1.359375 0.40625q0.84375 0 1.578125 -0.328125q0.734375 -0.34375 1.5 -1.09375l0 -1.4375zm10.4609375 -2.84375l0 -0.21875q0 -0.234375 0.09375 -0.328125q0.09375 -0.109375 0.234375 -0.109375q0.140625 0 0.234375 0.109375q0.09375 0.09375 0.09375 0.328125l0 1.484375q0 0.25 -0.09375 0.359375q-0.09375 0.09375 -0.234375 0.09375q-0.140625 0 -0.234375 -0.09375q-0.078125 -0.09375 -0.09375 -0.296875q-0.046875 -0.5625 -0.734375 -1.0625q-0.6875 -0.5 -1.84375 -0.5q-1.453125 0 -2.21875 0.921875q-0.75 0.90625 -0.75 2.09375q0 1.265625 0.828125 2.09375q0.84375 0.828125 2.171875 0.828125q0.765625 0 1.546875 -0.28125q0.796875 -0.28125 1.4375 -0.90625q0.171875 -0.15625 0.296875 -0.15625q0.125 0 0.21875 0.09375q0.09375 0.09375 0.09375 0.21875q0 0.34375 -0.796875 0.859375q-1.265625 0.84375 -2.828125 0.84375q-1.59375 0 -2.609375 -1.015625q-1.015625 -1.015625 -1.015625 -2.578125q0 -1.578125 1.03125 -2.625q1.046875 -1.046875 2.640625 -1.046875q1.5 0 2.53125 0.890625zm10.4140625 2.875l-6.6875 0q0.171875 1.28125 1.0625 2.0625q0.890625 0.765625 2.21875 0.765625q0.734375 0 1.53125 -0.234375q0.8125 -0.25 1.3125 -0.640625q0.15625 -0.125 0.265625 -0.125q0.125 0 0.21875 0.109375q0.09375 0.09375 0.09375 0.21875q0 0.140625 -0.125 0.265625q-0.375 0.390625 -1.34375 0.734375q-0.953125 0.34375 -1.953125 0.34375q-1.6875 0 -2.828125 -1.109375q-1.125 -1.109375 -1.125 -2.6875q0 -1.421875 1.0625 -2.4375q1.0625 -1.03125 2.625 -1.03125q1.609375 0 2.640625 1.046875q1.046875 1.046875 1.03125 2.71875zm-0.671875 -0.65625q-0.1875 -1.09375 -1.03125 -1.765625q-0.828125 -0.6875 -1.96875 -0.6875q-1.15625 0 -1.984375 0.671875q-0.828125 0.671875 -1.03125 1.78125l6.015625 0z" fill-rule="nonzero"></path><path fill="#c9daf8" d="m252.07611 246.52231l281.44885 0l0 62.92914l-281.44885 0z" fill-rule="evenodd"></path><path stroke="#000000" stroke-width="1.0" stroke-linejoin="round" stroke-linecap="butt" d="m252.07611 246.52231l281.44885 0l0 62.92914l-281.44885 0z" fill-rule="evenodd"></path><path fill="#000000" d="m263.7636 264.1167l0 0.984375q0.6875 -0.6875 1.234375 -0.953125q0.5625 -0.265625 1.25 -0.265625q0.75 0 1.375 0.3125q0.4375 0.234375 0.78125 0.78125q0.359375 0.546875 0.359375 1.109375l0 4.140625l0.5625 0q0.234375 0 0.328125 0.09375q0.109375 0.078125 0.109375 0.234375q0 0.140625 -0.109375 0.234375q-0.09375 0.09375 -0.328125 0.09375l-1.765625 0q-0.234375 0 -0.34375 -0.09375q-0.09375 -0.09375 -0.09375 -0.234375q0 -0.15625 0.09375 -0.234375q0.109375 -0.09375 0.34375 -0.09375l0.546875 0l0 -4.03125q0 -0.6875 -0.515625 -1.171875q-0.5 -0.484375 -1.34375 -0.484375q-0.65625 0 -1.140625 0.265625q-0.46875 0.265625 -1.34375 1.296875l0 4.125l0.734375 0q0.234375 0 0.328125 0.09375q0.109375 0.078125 0.109375 0.234375q0 0.140625 -0.109375 0.234375q-0.09375 0.09375 -0.328125 0.09375l-2.140625 0q-0.234375 0 -0.34375 -0.09375q-0.09375 -0.09375 -0.09375 -0.234375q0 -0.15625 0.09375 -0.234375q0.109375 -0.09375 0.34375 -0.09375l0.75 0l0 -5.453125l-0.5625 0q-0.234375 0 -0.34375 -0.09375q-0.09375 -0.09375 -0.09375 -0.234375q0 -0.140625 0.09375 -0.234375q0.109375 -0.09375 0.34375 -0.09375l1.21875 0zm15.3828125 3.390625q0 1.5 -1.078125 2.578125q-1.0625 1.0625 -2.578125 1.0625q-1.53125 0 -2.609375 -1.0625q-1.0625 -1.078125 -1.0625 -2.578125q0 -1.5 1.0625 -2.5625q1.078125 -1.0625 2.609375 -1.0625q1.515625 0 2.578125 1.0625q1.078125 1.0625 1.078125 2.5625zm-0.65625 0q0 -1.234375 -0.890625 -2.09375q-0.875 -0.875 -2.125 -0.875q-1.25 0 -2.125 0.875q-0.875 0.875 -0.875 2.09375q0 1.21875 0.875 2.09375q0.875 0.875 2.125 0.875q1.25 0 2.125 -0.859375q0.890625 -0.875 0.890625 -2.109375zm9.8046875 -6.4375l0 9.15625l0.875 0q0.25 0 0.34375 0.09375q0.109375 0.078125 0.109375 0.234375q0 0.140625 -0.109375 0.234375q-0.09375 0.09375 -0.34375 0.09375l-1.53125 0l0 -1.3125q-1.140625 1.578125 -2.90625 1.578125q-0.890625 0 -1.703125 -0.46875q-0.8125 -0.484375 -1.296875 -1.359375q-0.46875 -0.875 -0.46875 -1.8125q0 -0.9375 0.46875 -1.796875q0.484375 -0.875 1.296875 -1.34375q0.8125 -0.484375 1.71875 -0.484375q1.71875 0 2.890625 1.5625l0 -3.703125l-0.875 0q-0.25 0 -0.359375 -0.09375q-0.09375 -0.09375 -0.09375 -0.25q0 -0.140625 0.09375 -0.234375q0.109375 -0.09375 0.359375 -0.09375l1.53125 0zm-0.65625 6.4375q0 -1.25 -0.84375 -2.109375q-0.84375 -0.859375 -2.015625 -0.859375q-1.171875 0 -2.015625 0.859375q-0.84375 0.859375 -0.84375 2.109375q0 1.25 0.84375 2.109375q0.84375 0.859375 2.015625 0.859375q1.171875 0 2.015625 -0.859375q0.84375 -0.859375 0.84375 -2.109375zm10.6015625 0.140625l-6.6875 0q0.171875 1.28125 1.0625 2.0625q0.890625 0.765625 2.21875 0.765625q0.734375 0 1.53125 -0.234375q0.8125 -0.25 1.3125 -0.640625q0.15625 -0.125 0.265625 -0.125q0.125 0 0.21875 0.109375q0.09375 0.09375 0.09375 0.21875q0 0.140625 -0.125 0.265625q-0.375 0.390625 -1.34375 0.734375q-0.953125 0.34375 -1.953125 0.34375q-1.6875 0 -2.828125 -1.109375q-1.125 -1.109375 -1.125 -2.6875q0 -1.421875 1.0625 -2.4375q1.0625 -1.03125 2.625 -1.03125q1.609375 0 2.640625 1.046875q1.046875 1.046875 1.03125 2.71875zm-0.671875 -0.65625q-0.1875 -1.09375 -1.03125 -1.765625q-0.828125 -0.6875 -1.96875 -0.6875q-1.15625 0 -1.984375 0.671875q-0.828125 0.671875 -1.03125 1.78125l6.015625 0z" fill-rule="nonzero"></path><path fill="#f4cccc" d="m312.63254 279.89502l52.314972 0l0 25.543304l-52.314972 0z" fill-rule="evenodd"></path><path stroke="#000000" stroke-width="1.0" stroke-linejoin="round" stroke-linecap="butt" d="m312.63254 279.89502l52.314972 0l0 25.543304l-52.314972 0z" fill-rule="evenodd"></path><path fill="#000000" d="m325.33566 296.40668l-0.765625 0l-1.859375 -4.1875l-0.453125 0q-0.171875 0 -0.25 -0.0625q-0.0625 -0.078125 -0.0625 -0.171875q0 -0.09375 0.0625 -0.15625q0.078125 -0.078125 0.25 -0.078125l1.6875 0q0.15625 0 0.21875 0.078125q0.078125 0.0625 0.078125 0.15625q0 0.09375 -0.078125 0.171875q-0.0625 0.0625 -0.21875 0.0625l-0.75 0l1.65625 3.734375l0.203125 0l1.609375 -3.734375l-0.75 0q-0.15625 0 -0.234375 -0.0625q-0.0625 -0.078125 -0.0625 -0.171875q0 -0.09375 0.0625 -0.15625q0.078125 -0.078125 0.234375 -0.078125l1.703125 0q0.171875 0 0.234375 0.078125q0.0625 0.0625 0.0625 0.15625q0 0.09375 -0.0625 0.171875q-0.0625 0.0625 -0.234375 0.0625l-0.453125 0l-1.828125 4.1875zm7.491699 0l0 -0.65625q-0.984375 0.828125 -2.09375 0.828125q-0.8125 0 -1.265625 -0.40625q-0.453125 -0.40625 -0.453125 -1.0q0 -0.65625 0.59375 -1.140625q0.609375 -0.5 1.75 -0.5q0.3125 0 0.671875 0.046875q0.375 0.03125 0.796875 0.125l0 -0.734375q0 -0.375 -0.34375 -0.640625q-0.34375 -0.28125 -1.03125 -0.28125q-0.515625 0 -1.46875 0.3125q-0.171875 0.046875 -0.21875 0.046875q-0.09375 0 -0.15625 -0.0625q-0.0625 -0.0625 -0.0625 -0.15625q0 -0.09375 0.0625 -0.140625q0.0625 -0.09375 0.609375 -0.234375q0.828125 -0.21875 1.265625 -0.21875q0.84375 0 1.3125 0.421875q0.484375 0.421875 0.484375 0.953125l0 2.984375l0.609375 0q0.171875 0 0.234375 0.0625q0.078125 0.0625 0.078125 0.171875q0 0.09375 -0.078125 0.15625q-0.0625 0.0625 -0.234375 0.0625l-1.0625 0zm0 -2.25q-0.3125 -0.09375 -0.671875 -0.125q-0.34375 -0.046875 -0.734375 -0.046875q-0.984375 0 -1.546875 0.421875q-0.421875 0.3125 -0.421875 0.765625q0 0.40625 0.3125 0.6875q0.328125 0.265625 0.9375 0.265625q0.59375 0 1.09375 -0.21875q0.5 -0.234375 1.03125 -0.75l0 -1.0zm5.538574 -4.484375l0 6.28125l1.765625 0q0.171875 0 0.234375 0.0625q0.078125 0.0625 0.078125 0.171875q0 0.09375 -0.078125 0.15625q-0.0625 0.0625 -0.234375 0.0625l-3.984375 0q-0.171875 0 -0.25 -0.0625q-0.0625 -0.0625 -0.0625 -0.15625q0 -0.109375 0.0625 -0.171875q0.078125 -0.0625 0.25 -0.0625l1.765625 0l0 -5.828125l-1.296875 0q-0.171875 0 -0.25 -0.0625q-0.0625 -0.0625 -0.0625 -0.171875q0 -0.09375 0.0625 -0.15625q0.078125 -0.0625 0.25 -0.0625l1.75 0zm7.913574 6.734375l0 -0.65625q-0.921875 0.828125 -2.0 0.828125q-0.65625 0 -1.0 -0.359375q-0.453125 -0.46875 -0.453125 -1.09375l0 -2.90625l-0.59375 0q-0.171875 0 -0.25 -0.0625q-0.0625 -0.078125 -0.0625 -0.171875q0 -0.09375 0.0625 -0.15625q0.078125 -0.078125 0.25 -0.078125l1.046875 0l0 3.375q0 0.4375 0.28125 0.71875q0.28125 0.28125 0.703125 0.28125q1.09375 0 2.015625 -1.0l0 -2.90625l-0.828125 0q-0.171875 0 -0.234375 -0.0625q-0.0625 -0.078125 -0.0625 -0.171875q0 -0.09375 0.0625 -0.15625q0.0625 -0.078125 0.234375 -0.078125l1.28125 0l0 4.203125l0.375 0q0.171875 0 0.234375 0.0625q0.078125 0.0625 0.078125 0.171875q0 0.09375 -0.078125 0.15625q-0.0625 0.0625 -0.234375 0.0625l-0.828125 0zm7.491699 -2.21875l-4.59375 0q0.125 0.875 0.734375 1.40625q0.625 0.53125 1.53125 0.53125q0.5 0 1.046875 -0.15625q0.5625 -0.171875 0.90625 -0.4375q0.109375 -0.09375 0.171875 -0.09375q0.09375 0 0.15625 0.078125q0.0625 0.0625 0.0625 0.15625q0 0.09375 -0.078125 0.171875q-0.265625 0.265625 -0.921875 0.5q-0.65625 0.234375 -1.34375 0.234375q-1.171875 0 -1.953125 -0.75q-0.765625 -0.765625 -0.765625 -1.84375q0 -0.984375 0.71875 -1.6875q0.734375 -0.703125 1.8125 -0.703125q1.109375 0 1.8125 0.71875q0.71875 0.71875 0.703125 1.875zm-0.453125 -0.453125q-0.125 -0.75 -0.703125 -1.21875q-0.578125 -0.46875 -1.359375 -0.46875q-0.796875 0 -1.359375 0.46875q-0.5625 0.453125 -0.703125 1.21875l4.125 0z" fill-rule="nonzero"></path><path fill="#f4cccc" d="m312.63254 249.71654l65.60629 0l0 25.54332l-65.60629 0z" fill-rule="evenodd"></path><path stroke="#000000" stroke-width="1.0" stroke-linejoin="round" stroke-linecap="butt" d="m312.63254 249.71654l65.60629 0l0 25.54332l-65.60629 0z" fill-rule="evenodd"></path><path fill="#000000" d="m323.2263 261.57193l0 0.828125q0.40625 -0.484375 0.859375 -0.734375q0.46875 -0.25 1.109375 -0.25q0.65625 0 1.21875 0.3125q0.5625 0.3125 0.875 0.875q0.3125 0.546875 0.3125 1.15625q0 0.96875 -0.703125 1.671875q-0.6875 0.6875 -1.703125 0.6875q-1.203125 0 -1.96875 -0.984375l0 2.71875l1.109375 0q0.15625 0 0.21875 0.0625q0.078125 0.0625 0.078125 0.15625q0 0.09375 -0.078125 0.15625q-0.0625 0.078125 -0.21875 0.078125l-2.15625 0q-0.171875 0 -0.25 -0.0625q-0.0625 -0.0625 -0.0625 -0.171875q0 -0.09375 0.0625 -0.15625q0.078125 -0.0625 0.25 -0.0625l0.609375 0l0 -5.8125l-0.609375 0q-0.171875 0 -0.25 -0.0625q-0.0625 -0.078125 -0.0625 -0.171875q0 -0.09375 0.0625 -0.15625q0.078125 -0.078125 0.25 -0.078125l1.046875 0zm3.921875 2.1875q0 -0.78125 -0.578125 -1.328125q-0.5625 -0.5625 -1.375 -0.5625q-0.828125 0 -1.40625 0.5625q-0.5625 0.5625 -0.5625 1.328125q0 0.78125 0.5625 1.34375q0.578125 0.5625 1.40625 0.5625q0.8125 0 1.375 -0.5625q0.578125 -0.5625 0.578125 -1.34375zm5.679199 2.46875l0 -0.65625q-0.984375 0.828125 -2.09375 0.828125q-0.8125 0 -1.265625 -0.40625q-0.453125 -0.40625 -0.453125 -1.0q0 -0.65625 0.59375 -1.140625q0.609375 -0.5 1.75 -0.5q0.3125 0 0.671875 0.046875q0.375 0.03125 0.796875 0.125l0 -0.734375q0 -0.375 -0.34375 -0.640625q-0.34375 -0.28125 -1.03125 -0.28125q-0.515625 0 -1.46875 0.3125q-0.171875 0.046875 -0.21875 0.046875q-0.09375 0 -0.15625 -0.0625q-0.0625 -0.0625 -0.0625 -0.15625q0 -0.09375 0.0625 -0.140625q0.0625 -0.09375 0.609375 -0.234375q0.828125 -0.21875 1.265625 -0.21875q0.84375 0 1.3125 0.421875q0.484375 0.421875 0.484375 0.953125l0 2.984375l0.609375 0q0.171875 0 0.234375 0.0625q0.078125 0.0625 0.078125 0.171875q0 0.09375 -0.078125 0.15625q-0.0625 0.0625 -0.234375 0.0625l-1.0625 0zm0 -2.25q-0.3125 -0.09375 -0.671875 -0.125q-0.34375 -0.046875 -0.734375 -0.046875q-0.984375 0 -1.546875 0.421875q-0.421875 0.3125 -0.421875 0.765625q0 0.40625 0.3125 0.6875q0.328125 0.265625 0.9375 0.265625q0.59375 0 1.09375 -0.21875q0.5 -0.234375 1.03125 -0.75l0 -1.0zm4.772949 -2.40625l0 1.140625q0.875 -0.796875 1.3125 -1.015625q0.4375 -0.234375 0.8125 -0.234375q0.40625 0 0.75 0.28125q0.34375 0.265625 0.34375 0.40625q0 0.09375 -0.078125 0.171875q-0.0625 0.0625 -0.15625 0.0625q-0.0625 0 -0.09375 -0.015625q-0.03125 -0.03125 -0.140625 -0.125q-0.1875 -0.1875 -0.328125 -0.25q-0.140625 -0.078125 -0.265625 -0.078125q-0.296875 0 -0.71875 0.234375q-0.421875 0.234375 -1.4375 1.15625l0 2.46875l2.0 0q0.15625 0 0.21875 0.0625q0.078125 0.0625 0.078125 0.171875q0 0.09375 -0.078125 0.15625q-0.0625 0.0625 -0.21875 0.0625l-3.546875 0q-0.15625 0 -0.234375 -0.0625q-0.0625 -0.0625 -0.0625 -0.15625q0 -0.09375 0.0625 -0.15625q0.0625 -0.0625 0.234375 -0.0625l1.09375 0l0 -3.75l-0.828125 0q-0.171875 0 -0.25 -0.0625q-0.0625 -0.078125 -0.0625 -0.171875q0 -0.09375 0.0625 -0.15625q0.078125 -0.078125 0.25 -0.078125l1.28125 0zm9.569824 2.4375l-4.59375 0q0.125 0.875 0.734375 1.40625q0.625 0.53125 1.53125 0.53125q0.5 0 1.046875 -0.15625q0.5625 -0.171875 0.90625 -0.4375q0.109375 -0.09375 0.171875 -0.09375q0.09375 0 0.15625 0.078125q0.0625 0.0625 0.0625 0.15625q0 0.09375 -0.078125 0.171875q-0.265625 0.265625 -0.921875 0.5q-0.65625 0.234375 -1.34375 0.234375q-1.171875 0 -1.953125 -0.75q-0.765625 -0.765625 -0.765625 -1.84375q0 -0.984375 0.71875 -1.6875q0.734375 -0.703125 1.8125 -0.703125q1.109375 0 1.8125 0.71875q0.71875 0.71875 0.703125 1.875zm-0.453125 -0.453125q-0.125 -0.75 -0.703125 -1.21875q-0.578125 -0.46875 -1.359375 -0.46875q-0.796875 0 -1.359375 0.46875q-0.5625 0.453125 -0.703125 1.21875l4.125 0zm3.1635742 -1.984375l0 0.6875q0.46875 -0.484375 0.84375 -0.65625q0.390625 -0.1875 0.875 -0.1875q0.515625 0 0.9375 0.21875q0.296875 0.15625 0.53125 0.53125q0.25 0.375 0.25 0.765625l0 2.84375l0.390625 0q0.15625 0 0.21875 0.0625q0.078125 0.0625 0.078125 0.171875q0 0.09375 -0.078125 0.15625q-0.0625 0.0625 -0.21875 0.0625l-1.21875 0q-0.15625 0 -0.234375 -0.0625q-0.0625 -0.0625 -0.0625 -0.15625q0 -0.109375 0.0625 -0.171875q0.078125 -0.0625 0.234375 -0.0625l0.375 0l0 -2.765625q0 -0.484375 -0.34375 -0.8125q-0.34375 -0.328125 -0.9375 -0.328125q-0.4375 0 -0.765625 0.1875q-0.328125 0.171875 -0.9375 0.890625l0 2.828125l0.515625 0q0.15625 0 0.21875 0.0625q0.078125 0.0625 0.078125 0.171875q0 0.09375 -0.078125 0.15625q-0.0625 0.0625 -0.21875 0.0625l-1.484375 0q-0.15625 0 -0.234375 -0.0625q-0.0625 -0.0625 -0.0625 -0.15625q0 -0.109375 0.0625 -0.171875q0.078125 -0.0625 0.234375 -0.0625l0.515625 0l0 -3.734375l-0.375 0q-0.171875 0 -0.25 -0.0625q-0.0625 -0.078125 -0.0625 -0.171875q0 -0.09375 0.0625 -0.15625q0.078125 -0.078125 0.25 -0.078125l0.828125 0zm7.132324 0l2.453125 0q0.15625 0 0.21875 0.078125q0.078125 0.0625 0.078125 0.15625q0 0.09375 -0.078125 0.171875q-0.0625 0.0625 -0.21875 0.0625l-2.453125 0l0 3.0q0 0.390625 0.3125 0.65625q0.3125 0.25 0.921875 0.25q0.453125 0 0.984375 -0.125q0.53125 -0.140625 0.828125 -0.3125q0.109375 -0.078125 0.1875 -0.078125q0.078125 0 0.140625 0.078125q0.0625 0.0625 0.0625 0.15625q0 0.078125 -0.0625 0.15625q-0.171875 0.171875 -0.84375 0.375q-0.65625 0.203125 -1.265625 0.203125q-0.78125 0 -1.25 -0.359375q-0.46875 -0.375 -0.46875 -1.0l0 -3.0l-0.84375 0q-0.15625 0 -0.234375 -0.0625q-0.0625 -0.078125 -0.0625 -0.171875q0 -0.09375 0.0625 -0.15625q0.078125 -0.078125 0.234375 -0.078125l0.84375 0l0 -1.328125q0 -0.15625 0.0625 -0.21875q0.0625 -0.078125 0.15625 -0.078125q0.109375 0 0.171875 0.078125q0.0625 0.0625 0.0625 0.21875l0 1.328125zm9.022949 0.296875q0 -0.15625 0.0625 -0.21875q0.0625 -0.078125 0.15625 -0.078125q0.109375 0 0.171875 0.078125q0.0625 0.0625 0.0625 0.234375l0 0.765625q0 0.171875 -0.0625 0.25q-0.0625 0.0625 -0.171875 0.0625q-0.09375 0 -0.15625 -0.0625q-0.0625 -0.0625 -0.0625 -0.203125q-0.03125 -0.3125 -0.34375 -0.53125q-0.4375 -0.296875 -1.15625 -0.296875q-0.765625 0 -1.1875 0.3125q-0.3125 0.234375 -0.3125 0.515625q0 0.3125 0.375 0.53125q0.265625 0.15625 0.984375 0.234375q0.9375 0.09375 1.296875 0.234375q0.53125 0.1875 0.78125 0.515625q0.25 0.328125 0.25 0.71875q0 0.578125 -0.546875 1.03125q-0.546875 0.4375 -1.625 0.4375q-1.0625 0 -1.75 -0.53125q0 0.171875 -0.03125 0.234375q-0.015625 0.046875 -0.078125 0.09375q-0.046875 0.03125 -0.109375 0.03125q-0.109375 0 -0.171875 -0.0625q-0.0625 -0.078125 -0.0625 -0.234375l0 -0.9375q0 -0.15625 0.0625 -0.21875q0.0625 -0.078125 0.171875 -0.078125q0.09375 0 0.15625 0.078125q0.0625 0.0625 0.0625 0.171875q0 0.25 0.125 0.40625q0.1875 0.265625 0.59375 0.4375q0.421875 0.15625 1.015625 0.15625q0.875 0 1.296875 -0.3125q0.4375 -0.328125 0.4375 -0.703125q0 -0.421875 -0.421875 -0.671875q-0.453125 -0.25 -1.296875 -0.328125q-0.828125 -0.09375 -1.203125 -0.234375q-0.359375 -0.140625 -0.5625 -0.421875q-0.203125 -0.28125 -0.203125 -0.59375q0 -0.578125 0.5625 -0.921875q0.578125 -0.34375 1.359375 -0.34375q0.9375 0 1.53125 0.453125z" fill-rule="nonzero"></path><path fill="#f4cccc" d="m383.22046 249.71654l111.49606 0l0 25.54332l-111.49606 0z" fill-rule="evenodd"></path><path stroke="#000000" stroke-width="1.0" stroke-linejoin="round" stroke-linecap="butt" d="m383.22046 249.71654l111.49606 0l0 25.54332l-111.49606 0z" fill-rule="evenodd"></path><path fill="#000000" d="m393.8142 261.57193l0 0.828125q0.40625 -0.484375 0.859375 -0.734375q0.46875 -0.25 1.109375 -0.25q0.65625 0 1.21875 0.3125q0.5625 0.3125 0.875 0.875q0.3125 0.546875 0.3125 1.15625q0 0.96875 -0.703125 1.671875q-0.6875 0.6875 -1.703125 0.6875q-1.203125 0 -1.96875 -0.984375l0 2.71875l1.109375 0q0.15625 0 0.21875 0.0625q0.078125 0.0625 0.078125 0.15625q0 0.09375 -0.078125 0.15625q-0.0625 0.078125 -0.21875 0.078125l-2.15625 0q-0.171875 0 -0.25 -0.0625q-0.0625 -0.0625 -0.0625 -0.171875q0 -0.09375 0.0625 -0.15625q0.078125 -0.0625 0.25 -0.0625l0.609375 0l0 -5.8125l-0.609375 0q-0.171875 0 -0.25 -0.0625q-0.0625 -0.078125 -0.0625 -0.171875q0 -0.09375 0.0625 -0.15625q0.078125 -0.078125 0.25 -0.078125l1.046875 0zm3.921875 2.1875q0 -0.78125 -0.578125 -1.328125q-0.5625 -0.5625 -1.375 -0.5625q-0.828125 0 -1.40625 0.5625q-0.5625 0.5625 -0.5625 1.328125q0 0.78125 0.5625 1.34375q0.578125 0.5625 1.40625 0.5625q0.8125 0 1.375 -0.5625q0.578125 -0.5625 0.578125 -1.34375zm5.679199 2.46875l0 -0.65625q-0.984375 0.828125 -2.09375 0.828125q-0.8125 0 -1.265625 -0.40625q-0.453125 -0.40625 -0.453125 -1.0q0 -0.65625 0.59375 -1.140625q0.609375 -0.5 1.75 -0.5q0.3125 0 0.671875 0.046875q0.375 0.03125 0.796875 0.125l0 -0.734375q0 -0.375 -0.34375 -0.640625q-0.34375 -0.28125 -1.03125 -0.28125q-0.515625 0 -1.46875 0.3125q-0.171875 0.046875 -0.21875 0.046875q-0.09375 0 -0.15625 -0.0625q-0.0625 -0.0625 -0.0625 -0.15625q0 -0.09375 0.0625 -0.140625q0.0625 -0.09375 0.609375 -0.234375q0.828125 -0.21875 1.265625 -0.21875q0.84375 0 1.3125 0.421875q0.484375 0.421875 0.484375 0.953125l0 2.984375l0.609375 0q0.171875 0 0.234375 0.0625q0.078125 0.0625 0.078125 0.171875q0 0.09375 -0.078125 0.15625q-0.0625 0.0625 -0.234375 0.0625l-1.0625 0zm0 -2.25q-0.3125 -0.09375 -0.671875 -0.125q-0.34375 -0.046875 -0.734375 -0.046875q-0.984375 0 -1.546875 0.421875q-0.421875 0.3125 -0.421875 0.765625q0 0.40625 0.3125 0.6875q0.328125 0.265625 0.9375 0.265625q0.59375 0 1.09375 -0.21875q0.5 -0.234375 1.03125 -0.75l0 -1.0zm4.772949 -2.40625l0 1.140625q0.875 -0.796875 1.3125 -1.015625q0.4375 -0.234375 0.8125 -0.234375q0.40625 0 0.75 0.28125q0.34375 0.265625 0.34375 0.40625q0 0.09375 -0.078125 0.171875q-0.0625 0.0625 -0.15625 0.0625q-0.0625 0 -0.09375 -0.015625q-0.03125 -0.03125 -0.140625 -0.125q-0.1875 -0.1875 -0.328125 -0.25q-0.140625 -0.078125 -0.265625 -0.078125q-0.296875 0 -0.71875 0.234375q-0.421875 0.234375 -1.4375 1.15625l0 2.46875l2.0 0q0.15625 0 0.21875 0.0625q0.078125 0.0625 0.078125 0.171875q0 0.09375 -0.078125 0.15625q-0.0625 0.0625 -0.21875 0.0625l-3.546875 0q-0.15625 0 -0.234375 -0.0625q-0.0625 -0.0625 -0.0625 -0.15625q0 -0.09375 0.0625 -0.15625q0.0625 -0.0625 0.234375 -0.0625l1.09375 0l0 -3.75l-0.828125 0q-0.171875 0 -0.25 -0.0625q-0.0625 -0.078125 -0.0625 -0.171875q0 -0.09375 0.0625 -0.15625q0.078125 -0.078125 0.25 -0.078125l1.28125 0zm9.569824 2.4375l-4.59375 0q0.125 0.875 0.734375 1.40625q0.625 0.53125 1.53125 0.53125q0.5 0 1.046875 -0.15625q0.5625 -0.171875 0.90625 -0.4375q0.109375 -0.09375 0.171875 -0.09375q0.09375 0 0.15625 0.078125q0.0625 0.0625 0.0625 0.15625q0 0.09375 -0.078125 0.171875q-0.265625 0.265625 -0.921875 0.5q-0.65625 0.234375 -1.34375 0.234375q-1.171875 0 -1.953125 -0.75q-0.765625 -0.765625 -0.765625 -1.84375q0 -0.984375 0.71875 -1.6875q0.734375 -0.703125 1.8125 -0.703125q1.109375 0 1.8125 0.71875q0.71875 0.71875 0.703125 1.875zm-0.453125 -0.453125q-0.125 -0.75 -0.703125 -1.21875q-0.578125 -0.46875 -1.359375 -0.46875q-0.796875 0 -1.359375 0.46875q-0.5625 0.453125 -0.703125 1.21875l4.125 0zm3.1635742 -1.984375l0 0.6875q0.46875 -0.484375 0.84375 -0.65625q0.390625 -0.1875 0.875 -0.1875q0.515625 0 0.9375 0.21875q0.296875 0.15625 0.53125 0.53125q0.25 0.375 0.25 0.765625l0 2.84375l0.390625 0q0.15625 0 0.21875 0.0625q0.078125 0.0625 0.078125 0.171875q0 0.09375 -0.078125 0.15625q-0.0625 0.0625 -0.21875 0.0625l-1.21875 0q-0.15625 0 -0.234375 -0.0625q-0.0625 -0.0625 -0.0625 -0.15625q0 -0.109375 0.0625 -0.171875q0.078125 -0.0625 0.234375 -0.0625l0.375 0l0 -2.765625q0 -0.484375 -0.34375 -0.8125q-0.34375 -0.328125 -0.9375 -0.328125q-0.4375 0 -0.765625 0.1875q-0.328125 0.171875 -0.9375 0.890625l0 2.828125l0.515625 0q0.15625 0 0.21875 0.0625q0.078125 0.0625 0.078125 0.171875q0 0.09375 -0.078125 0.15625q-0.0625 0.0625 -0.21875 0.0625l-1.484375 0q-0.15625 0 -0.234375 -0.0625q-0.0625 -0.0625 -0.0625 -0.15625q0 -0.109375 0.0625 -0.171875q0.078125 -0.0625 0.234375 -0.0625l0.515625 0l0 -3.734375l-0.375 0q-0.171875 0 -0.25 -0.0625q-0.0625 -0.078125 -0.0625 -0.171875q0 -0.09375 0.0625 -0.15625q0.078125 -0.078125 0.25 -0.078125l0.828125 0zm7.132324 0l2.453125 0q0.15625 0 0.21875 0.078125q0.078125 0.0625 0.078125 0.15625q0 0.09375 -0.078125 0.171875q-0.0625 0.0625 -0.21875 0.0625l-2.453125 0l0 3.0q0 0.390625 0.3125 0.65625q0.3125 0.25 0.921875 0.25q0.453125 0 0.984375 -0.125q0.53125 -0.140625 0.828125 -0.3125q0.109375 -0.078125 0.1875 -0.078125q0.078125 0 0.140625 0.078125q0.0625 0.0625 0.0625 0.15625q0 0.078125 -0.0625 0.15625q-0.171875 0.171875 -0.84375 0.375q-0.65625 0.203125 -1.265625 0.203125q-0.78125 0 -1.25 -0.359375q-0.46875 -0.375 -0.46875 -1.0l0 -3.0l-0.84375 0q-0.15625 0 -0.234375 -0.0625q-0.0625 -0.078125 -0.0625 -0.171875q0 -0.09375 0.0625 -0.15625q0.078125 -0.078125 0.234375 -0.078125l0.84375 0l0 -1.328125q0 -0.15625 0.0625 -0.21875q0.0625 -0.078125 0.15625 -0.078125q0.109375 0 0.171875 0.078125q0.0625 0.0625 0.0625 0.21875l0 1.328125zm10.522949 7.671875l-6.0 0q-0.15625 0 -0.234375 -0.0625q-0.0625 -0.0625 -0.0625 -0.171875q0 -0.09375 0.0625 -0.15625q0.078125 -0.0625 0.234375 -0.0625l6.0 0q0.171875 0 0.234375 0.0625q0.0625 0.0625 0.0625 0.15625q0 0.109375 -0.0625 0.171875q-0.0625 0.0625 -0.234375 0.0625zm4.897949 -3.015625l0 -0.65625q-0.984375 0.828125 -2.09375 0.828125q-0.8125 0 -1.265625 -0.40625q-0.453125 -0.40625 -0.453125 -1.0q0 -0.65625 0.59375 -1.140625q0.609375 -0.5 1.75 -0.5q0.3125 0 0.671875 0.046875q0.375 0.03125 0.796875 0.125l0 -0.734375q0 -0.375 -0.34375 -0.640625q-0.34375 -0.28125 -1.03125 -0.28125q-0.515625 0 -1.46875 0.3125q-0.171875 0.046875 -0.21875 0.046875q-0.09375 0 -0.15625 -0.0625q-0.0625 -0.0625 -0.0625 -0.15625q0 -0.09375 0.0625 -0.140625q0.0625 -0.09375 0.609375 -0.234375q0.828125 -0.21875 1.265625 -0.21875q0.84375 0 1.3125 0.421875q0.484375 0.421875 0.484375 0.953125l0 2.984375l0.609375 0q0.171875 0 0.234375 0.0625q0.078125 0.0625 0.078125 0.171875q0 0.09375 -0.078125 0.15625q-0.0625 0.0625 -0.234375 0.0625l-1.0625 0zm0 -2.25q-0.3125 -0.09375 -0.671875 -0.125q-0.34375 -0.046875 -0.734375 -0.046875q-0.984375 0 -1.546875 0.421875q-0.421875 0.3125 -0.421875 0.765625q0 0.40625 0.3125 0.6875q0.328125 0.265625 0.9375 0.265625q0.59375 0 1.09375 -0.21875q0.5 -0.234375 1.03125 -0.75l0 -1.0zm4.772949 -2.40625l0 1.140625q0.875 -0.796875 1.3125 -1.015625q0.4375 -0.234375 0.8125 -0.234375q0.40625 0 0.75 0.28125q0.34375 0.265625 0.34375 0.40625q0 0.09375 -0.078125 0.171875q-0.0625 0.0625 -0.15625 0.0625q-0.0625 0 -0.09375 -0.015625q-0.03125 -0.03125 -0.140625 -0.125q-0.1875 -0.1875 -0.328125 -0.25q-0.140625 -0.078125 -0.265625 -0.078125q-0.296875 0 -0.71875 0.234375q-0.421875 0.234375 -1.4375 1.15625l0 2.46875l2.0 0q0.15625 0 0.21875 0.0625q0.078125 0.0625 0.078125 0.171875q0 0.09375 -0.078125 0.15625q-0.0625 0.0625 -0.21875 0.0625l-3.546875 0q-0.15625 0 -0.234375 -0.0625q-0.0625 -0.0625 -0.0625 -0.15625q0 -0.09375 0.0625 -0.15625q0.0625 -0.0625 0.234375 -0.0625l1.09375 0l0 -3.75l-0.828125 0q-0.171875 0 -0.25 -0.0625q-0.0625 -0.078125 -0.0625 -0.171875q0 -0.09375 0.0625 -0.15625q0.078125 -0.078125 0.25 -0.078125l1.28125 0zm8.647949 0.828125l0 -0.828125l1.0625 0q0.15625 0 0.21875 0.078125q0.078125 0.0625 0.078125 0.15625q0 0.09375 -0.078125 0.171875q-0.0625 0.0625 -0.21875 0.0625l-0.609375 0l0 4.5q0 0.453125 -0.1875 0.8125q-0.125 0.234375 -0.4375 0.484375q-0.296875 0.25 -0.546875 0.359375q-0.25 0.109375 -0.65625 0.109375l-1.28125 0q-0.15625 0 -0.234375 -0.0625q-0.0625 -0.0625 -0.0625 -0.171875q0 -0.09375 0.0625 -0.171875q0.078125 -0.0625 0.234375 -0.0625l1.296875 0.015625q0.390625 0 0.703125 -0.203125q0.328125 -0.203125 0.546875 -0.59375q0.109375 -0.234375 0.109375 -0.578125l0 -1.359375q-0.71875 1.0 -1.859375 1.0q-0.9375 0 -1.609375 -0.6875q-0.671875 -0.703125 -0.671875 -1.671875q0 -0.96875 0.671875 -1.65625q0.671875 -0.6875 1.609375 -0.6875q1.140625 0 1.859375 0.984375zm0 1.359375q0 -0.796875 -0.546875 -1.34375q-0.53125 -0.546875 -1.296875 -0.546875q-0.75 0 -1.296875 0.5625q-0.546875 0.546875 -0.546875 1.328125q0 0.796875 0.546875 1.359375q0.546875 0.546875 1.296875 0.546875q0.765625 0 1.296875 -0.546875q0.546875 -0.5625 0.546875 -1.359375zm3.6323242 -2.1875l0 0.6875q0.46875 -0.484375 0.84375 -0.65625q0.390625 -0.1875 0.875 -0.1875q0.515625 0 0.9375 0.21875q0.296875 0.15625 0.53125 0.53125q0.25 0.375 0.25 0.765625l0 2.84375l0.390625 0q0.15625 0 0.21875 0.0625q0.078125 0.0625 0.078125 0.171875q0 0.09375 -0.078125 0.15625q-0.0625 0.0625 -0.21875 0.0625l-1.21875 0q-0.15625 0 -0.234375 -0.0625q-0.0625 -0.0625 -0.0625 -0.15625q0 -0.109375 0.0625 -0.171875q0.078125 -0.0625 0.234375 -0.0625l0.375 0l0 -2.765625q0 -0.484375 -0.34375 -0.8125q-0.34375 -0.328125 -0.9375 -0.328125q-0.4375 0 -0.765625 0.1875q-0.328125 0.171875 -0.9375 0.890625l0 2.828125l0.515625 0q0.15625 0 0.21875 0.0625q0.078125 0.0625 0.078125 0.171875q0 0.09375 -0.078125 0.15625q-0.0625 0.0625 -0.21875 0.0625l-1.484375 0q-0.15625 0 -0.234375 -0.0625q-0.0625 -0.0625 -0.0625 -0.15625q0 -0.109375 0.0625 -0.171875q0.078125 -0.0625 0.234375 -0.0625l0.515625 0l0 -3.734375l-0.375 0q-0.171875 0 -0.25 -0.0625q-0.0625 -0.078125 -0.0625 -0.171875q0 -0.09375 0.0625 -0.15625q0.078125 -0.078125 0.25 -0.078125l0.828125 0zm9.601074 4.65625l0 -0.65625q-0.921875 0.828125 -2.0 0.828125q-0.65625 0 -1.0 -0.359375q-0.453125 -0.46875 -0.453125 -1.09375l0 -2.90625l-0.59375 0q-0.171875 0 -0.25 -0.0625q-0.0625 -0.078125 -0.0625 -0.171875q0 -0.09375 0.0625 -0.15625q0.078125 -0.078125 0.25 -0.078125l1.046875 0l0 3.375q0 0.4375 0.28125 0.71875q0.28125 0.28125 0.703125 0.28125q1.09375 0 2.015625 -1.0l0 -2.90625l-0.828125 0q-0.171875 0 -0.234375 -0.0625q-0.0625 -0.078125 -0.0625 -0.171875q0 -0.09375 0.0625 -0.15625q0.0625 -0.078125 0.234375 -0.078125l1.28125 0l0 4.203125l0.375 0q0.171875 0 0.234375 0.0625q0.078125 0.0625 0.078125 0.171875q0 0.09375 -0.078125 0.15625q-0.0625 0.0625 -0.234375 0.0625l-0.828125 0zm3.0073242 -4.65625l0 0.46875q0.578125 -0.625 1.15625 -0.625q0.34375 0 0.609375 0.1875q0.265625 0.1875 0.4375 0.5625q0.296875 -0.375 0.609375 -0.5625q0.3125 -0.1875 0.625 -0.1875q0.484375 0 0.78125 0.3125q0.375 0.40625 0.375 0.890625l0 3.15625l0.375 0q0.171875 0 0.234375 0.0625q0.078125 0.0625 0.078125 0.171875q0 0.09375 -0.078125 0.15625q-0.0625 0.0625 -0.234375 0.0625l-0.828125 0l0 -3.5625q0 -0.34375 -0.21875 -0.5625q-0.203125 -0.234375 -0.46875 -0.234375q-0.25 0 -0.53125 0.1875q-0.265625 0.1875 -0.609375 0.734375l0 2.984375l0.375 0q0.15625 0 0.21875 0.0625q0.078125 0.0625 0.078125 0.171875q0 0.09375 -0.078125 0.15625q-0.0625 0.0625 -0.21875 0.0625l-0.84375 0l0 -3.53125q0 -0.359375 -0.21875 -0.59375q-0.203125 -0.234375 -0.46875 -0.234375q-0.234375 0 -0.46875 0.15625q-0.328125 0.21875 -0.6875 0.765625l0 2.984375l0.375 0q0.15625 0 0.21875 0.0625q0.078125 0.0625 0.078125 0.171875q0 0.09375 -0.078125 0.15625q-0.0625 0.0625 -0.21875 0.0625l-1.21875 0q-0.15625 0 -0.234375 -0.0625q-0.0625 -0.0625 -0.0625 -0.15625q0 -0.109375 0.0625 -0.171875q0.078125 -0.0625 0.234375 -0.0625l0.390625 0l0 -3.734375l-0.390625 0q-0.15625 0 -0.234375 -0.0625q-0.0625 -0.078125 -0.0625 -0.171875q0 -0.09375 0.0625 -0.15625q0.078125 -0.078125 0.234375 -0.078125l0.84375 0zm10.147949 0.296875q0 -0.15625 0.0625 -0.21875q0.0625 -0.078125 0.15625 -0.078125q0.109375 0 0.171875 0.078125q0.0625 0.0625 0.0625 0.234375l0 0.765625q0 0.171875 -0.0625 0.25q-0.0625 0.0625 -0.171875 0.0625q-0.09375 0 -0.15625 -0.0625q-0.0625 -0.0625 -0.0625 -0.203125q-0.03125 -0.3125 -0.34375 -0.53125q-0.4375 -0.296875 -1.15625 -0.296875q-0.765625 0 -1.1875 0.3125q-0.3125 0.234375 -0.3125 0.515625q0 0.3125 0.375 0.53125q0.265625 0.15625 0.984375 0.234375q0.9375 0.09375 1.296875 0.234375q0.53125 0.1875 0.78125 0.515625q0.25 0.328125 0.25 0.71875q0 0.578125 -0.546875 1.03125q-0.546875 0.4375 -1.625 0.4375q-1.0625 0 -1.75 -0.53125q0 0.171875 -0.03125 0.234375q-0.015625 0.046875 -0.078125 0.09375q-0.046875 0.03125 -0.109375 0.03125q-0.109375 0 -0.171875 -0.0625q-0.0625 -0.078125 -0.0625 -0.234375l0 -0.9375q0 -0.15625 0.0625 -0.21875q0.0625 -0.078125 0.171875 -0.078125q0.09375 0 0.15625 0.078125q0.0625 0.0625 0.0625 0.171875q0 0.25 0.125 0.40625q0.1875 0.265625 0.59375 0.4375q0.421875 0.15625 1.015625 0.15625q0.875 0 1.296875 -0.3125q0.4375 -0.328125 0.4375 -0.703125q0 -0.421875 -0.421875 -0.671875q-0.453125 -0.25 -1.296875 -0.328125q-0.828125 -0.09375 -1.203125 -0.234375q-0.359375 -0.140625 -0.5625 -0.421875q-0.203125 -0.28125 -0.203125 -0.59375q0 -0.578125 0.5625 -0.921875q0.578125 -0.34375 1.359375 -0.34375q0.9375 0 1.53125 0.453125z" fill-rule="nonzero"></path><path fill="#f4cccc" d="m369.32285 279.89502l41.29132 0l0 25.543304l-41.29132 0z" fill-rule="evenodd"></path><path stroke="#000000" stroke-width="1.0" stroke-linejoin="round" stroke-linecap="butt" d="m369.32285 279.89502l41.29132 0l0 25.543304l-41.29132 0z" fill-rule="evenodd"></path><path fill="#000000" d="m381.32285 292.21918l0 3.734375l1.984375 0q0.15625 0 0.21875 0.0625q0.078125 0.0625 0.078125 0.171875q0 0.09375 -0.078125 0.15625q-0.0625 0.0625 -0.21875 0.0625l-3.53125 0q-0.15625 0 -0.234375 -0.0625q-0.0625 -0.0625 -0.0625 -0.15625q0 -0.109375 0.0625 -0.171875q0.078125 -0.0625 0.234375 -0.0625l1.09375 0l0 -3.734375l-0.984375 0q-0.15625 0 -0.234375 -0.0625q-0.0625 -0.078125 -0.0625 -0.171875q0 -0.09375 0.0625 -0.15625q0.078125 -0.078125 0.234375 -0.078125l0.984375 0l0 -0.671875q0 -0.578125 0.453125 -0.984375q0.46875 -0.421875 1.234375 -0.421875q0.640625 0 1.359375 0.109375q0.28125 0.046875 0.328125 0.109375q0.0625 0.046875 0.0625 0.15625q0 0.09375 -0.0625 0.15625q-0.0625 0.0625 -0.171875 0.0625q-0.046875 0 -0.140625 -0.015625q-0.8125 -0.125 -1.375 -0.125q-0.59375 0 -0.921875 0.296875q-0.3125 0.28125 -0.3125 0.65625l0 0.671875l2.109375 0q0.171875 0 0.234375 0.078125q0.078125 0.0625 0.078125 0.15625q0 0.09375 -0.078125 0.171875q-0.0625 0.0625 -0.234375 0.0625l-2.109375 0zm8.444824 4.1875l0 -0.65625q-0.921875 0.828125 -2.0 0.828125q-0.65625 0 -1.0 -0.359375q-0.453125 -0.46875 -0.453125 -1.09375l0 -2.90625l-0.59375 0q-0.171875 0 -0.25 -0.0625q-0.0625 -0.078125 -0.0625 -0.171875q0 -0.09375 0.0625 -0.15625q0.078125 -0.078125 0.25 -0.078125l1.046875 0l0 3.375q0 0.4375 0.28125 0.71875q0.28125 0.28125 0.703125 0.28125q1.09375 0 2.015625 -1.0l0 -2.90625l-0.828125 0q-0.171875 0 -0.234375 -0.0625q-0.0625 -0.078125 -0.0625 -0.171875q0 -0.09375 0.0625 -0.15625q0.0625 -0.078125 0.234375 -0.078125l1.28125 0l0 4.203125l0.375 0q0.171875 0 0.234375 0.0625q0.078125 0.0625 0.078125 0.171875q0 0.09375 -0.078125 0.15625q-0.0625 0.0625 -0.234375 0.0625l-0.828125 0zm3.6010742 -4.65625l0 0.6875q0.46875 -0.484375 0.84375 -0.65625q0.390625 -0.1875 0.875 -0.1875q0.515625 0 0.9375 0.21875q0.296875 0.15625 0.53125 0.53125q0.25 0.375 0.25 0.765625l0 2.84375l0.390625 0q0.15625 0 0.21875 0.0625q0.078125 0.0625 0.078125 0.171875q0 0.09375 -0.078125 0.15625q-0.0625 0.0625 -0.21875 0.0625l-1.21875 0q-0.15625 0 -0.234375 -0.0625q-0.0625 -0.0625 -0.0625 -0.15625q0 -0.109375 0.0625 -0.171875q0.078125 -0.0625 0.234375 -0.0625l0.375 0l0 -2.765625q0 -0.484375 -0.34375 -0.8125q-0.34375 -0.328125 -0.9375 -0.328125q-0.4375 0 -0.765625 0.1875q-0.328125 0.171875 -0.9375 0.890625l0 2.828125l0.515625 0q0.15625 0 0.21875 0.0625q0.078125 0.0625 0.078125 0.171875q0 0.09375 -0.078125 0.15625q-0.0625 0.0625 -0.21875 0.0625l-1.484375 0q-0.15625 0 -0.234375 -0.0625q-0.0625 -0.0625 -0.0625 -0.15625q0 -0.109375 0.0625 -0.171875q0.078125 -0.0625 0.234375 -0.0625l0.515625 0l0 -3.734375l-0.375 0q-0.171875 0 -0.25 -0.0625q-0.0625 -0.078125 -0.0625 -0.171875q0 -0.09375 0.0625 -0.15625q0.078125 -0.078125 0.25 -0.078125l0.828125 0z" fill-rule="nonzero"></path><path fill="#f4cccc" d="m414.9895 279.89502l47.968506 0l0 25.543304l-47.968506 0z" fill-rule="evenodd"></path><path stroke="#000000" stroke-width="1.0" stroke-linejoin="round" stroke-linecap="butt" d="m414.9895 279.89502l47.968506 0l0 25.543304l-47.968506 0z" fill-rule="evenodd"></path><path fill="#000000" d="m428.58325 296.40668l0 -0.65625q-0.984375 0.828125 -2.09375 0.828125q-0.8125 0 -1.265625 -0.40625q-0.453125 -0.40625 -0.453125 -1.0q0 -0.65625 0.59375 -1.140625q0.609375 -0.5 1.75 -0.5q0.3125 0 0.671875 0.046875q0.375 0.03125 0.796875 0.125l0 -0.734375q0 -0.375 -0.34375 -0.640625q-0.34375 -0.28125 -1.03125 -0.28125q-0.515625 0 -1.46875 0.3125q-0.171875 0.046875 -0.21875 0.046875q-0.09375 0 -0.15625 -0.0625q-0.0625 -0.0625 -0.0625 -0.15625q0 -0.09375 0.0625 -0.140625q0.0625 -0.09375 0.609375 -0.234375q0.828125 -0.21875 1.265625 -0.21875q0.84375 0 1.3125 0.421875q0.484375 0.421875 0.484375 0.953125l0 2.984375l0.609375 0q0.171875 0 0.234375 0.0625q0.078125 0.0625 0.078125 0.171875q0 0.09375 -0.078125 0.15625q-0.0625 0.0625 -0.234375 0.0625l-1.0625 0zm0 -2.25q-0.3125 -0.09375 -0.671875 -0.125q-0.34375 -0.046875 -0.734375 -0.046875q-0.984375 0 -1.546875 0.421875q-0.421875 0.3125 -0.421875 0.765625q0 0.40625 0.3125 0.6875q0.328125 0.265625 0.9375 0.265625q0.59375 0 1.09375 -0.21875q0.5 -0.234375 1.03125 -0.75l0 -1.0zm4.772949 -2.40625l0 1.140625q0.875 -0.796875 1.3125 -1.015625q0.4375 -0.234375 0.8125 -0.234375q0.40625 0 0.75 0.28125q0.34375 0.265625 0.34375 0.40625q0 0.09375 -0.078125 0.171875q-0.0625 0.0625 -0.15625 0.0625q-0.0625 0 -0.09375 -0.015625q-0.03125 -0.03125 -0.140625 -0.125q-0.1875 -0.1875 -0.328125 -0.25q-0.140625 -0.078125 -0.265625 -0.078125q-0.296875 0 -0.71875 0.234375q-0.421875 0.234375 -1.4375 1.15625l0 2.46875l2.0 0q0.15625 0 0.21875 0.0625q0.078125 0.0625 0.078125 0.171875q0 0.09375 -0.078125 0.15625q-0.0625 0.0625 -0.21875 0.0625l-3.546875 0q-0.15625 0 -0.234375 -0.0625q-0.0625 -0.0625 -0.0625 -0.15625q0 -0.09375 0.0625 -0.15625q0.0625 -0.0625 0.234375 -0.0625l1.09375 0l0 -3.75l-0.828125 0q-0.171875 0 -0.25 -0.0625q-0.0625 -0.078125 -0.0625 -0.171875q0 -0.09375 0.0625 -0.15625q0.078125 -0.078125 0.25 -0.078125l1.28125 0zm8.647949 0.828125l0 -0.828125l1.0625 0q0.15625 0 0.21875 0.078125q0.078125 0.0625 0.078125 0.15625q0 0.09375 -0.078125 0.171875q-0.0625 0.0625 -0.21875 0.0625l-0.609375 0l0 4.5q0 0.453125 -0.1875 0.8125q-0.125 0.234375 -0.4375 0.484375q-0.296875 0.25 -0.546875 0.359375q-0.25 0.109375 -0.65625 0.109375l-1.28125 0q-0.15625 0 -0.234375 -0.0625q-0.0625 -0.0625 -0.0625 -0.171875q0 -0.09375 0.0625 -0.171875q0.078125 -0.0625 0.234375 -0.0625l1.296875 0.015625q0.390625 0 0.703125 -0.203125q0.328125 -0.203125 0.546875 -0.59375q0.109375 -0.234375 0.109375 -0.578125l0 -1.359375q-0.71875 1.0 -1.859375 1.0q-0.9375 0 -1.609375 -0.6875q-0.671875 -0.703125 -0.671875 -1.671875q0 -0.96875 0.671875 -1.65625q0.671875 -0.6875 1.609375 -0.6875q1.140625 0 1.859375 0.984375zm0 1.359375q0 -0.796875 -0.546875 -1.34375q-0.53125 -0.546875 -1.296875 -0.546875q-0.75 0 -1.296875 0.5625q-0.546875 0.546875 -0.546875 1.328125q0 0.796875 0.546875 1.359375q0.546875 0.546875 1.296875 0.546875q0.765625 0 1.296875 -0.546875q0.546875 -0.5625 0.546875 -1.359375zm6.585449 -1.890625q0 -0.15625 0.0625 -0.21875q0.0625 -0.078125 0.15625 -0.078125q0.109375 0 0.171875 0.078125q0.0625 0.0625 0.0625 0.234375l0 0.765625q0 0.171875 -0.0625 0.25q-0.0625 0.0625 -0.171875 0.0625q-0.09375 0 -0.15625 -0.0625q-0.0625 -0.0625 -0.0625 -0.203125q-0.03125 -0.3125 -0.34375 -0.53125q-0.4375 -0.296875 -1.15625 -0.296875q-0.765625 0 -1.1875 0.3125q-0.3125 0.234375 -0.3125 0.515625q0 0.3125 0.375 0.53125q0.265625 0.15625 0.984375 0.234375q0.9375 0.09375 1.296875 0.234375q0.53125 0.1875 0.78125 0.515625q0.25 0.328125 0.25 0.71875q0 0.578125 -0.546875 1.03125q-0.546875 0.4375 -1.625 0.4375q-1.0625 0 -1.75 -0.53125q0 0.171875 -0.03125 0.234375q-0.015625 0.046875 -0.078125 0.09375q-0.046875 0.03125 -0.109375 0.03125q-0.109375 0 -0.171875 -0.0625q-0.0625 -0.078125 -0.0625 -0.234375l0 -0.9375q0 -0.15625 0.0625 -0.21875q0.0625 -0.078125 0.171875 -0.078125q0.09375 0 0.15625 0.078125q0.0625 0.0625 0.0625 0.171875q0 0.25 0.125 0.40625q0.1875 0.265625 0.59375 0.4375q0.421875 0.15625 1.015625 0.15625q0.875 0 1.296875 -0.3125q0.4375 -0.328125 0.4375 -0.703125q0 -0.421875 -0.421875 -0.671875q-0.453125 -0.25 -1.296875 -0.328125q-0.828125 -0.09375 -1.203125 -0.234375q-0.359375 -0.140625 -0.5625 -0.421875q-0.203125 -0.28125 -0.203125 -0.59375q0 -0.578125 0.5625 -0.921875q0.578125 -0.34375 1.359375 -0.34375q0.9375 0 1.53125 0.453125z" fill-rule="nonzero"></path><path fill="#f4cccc" d="m467.33334 279.89502l57.88974 0l0 25.543304l-57.88974 0z" fill-rule="evenodd"></path><path stroke="#000000" stroke-width="1.0" stroke-linejoin="round" stroke-linecap="butt" d="m467.33334 279.89502l57.88974 0l0 25.543304l-57.88974 0z" fill-rule="evenodd"></path><path fill="#000000" d="m478.72397 294.39105l0 2.015625l-1.0625 0q-0.15625 0 -0.234375 -0.0625q-0.0625 -0.0625 -0.0625 -0.15625q0 -0.109375 0.0625 -0.171875q0.078125 -0.0625 0.234375 -0.0625l0.609375 0l0 -5.828125l-0.609375 0q-0.15625 0 -0.234375 -0.0625q-0.0625 -0.0625 -0.0625 -0.171875q0 -0.09375 0.0625 -0.15625q0.078125 -0.0625 0.234375 -0.0625l1.0625 0l0 4.15625l1.90625 -1.609375l-0.21875 0q-0.171875 0 -0.25 -0.0625q-0.0625 -0.078125 -0.0625 -0.171875q0 -0.09375 0.0625 -0.15625q0.078125 -0.078125 0.25 -0.078125l1.4375 0q0.171875 0 0.234375 0.078125q0.078125 0.0625 0.078125 0.15625q0 0.09375 -0.078125 0.171875q-0.0625 0.0625 -0.234375 0.0625l-0.515625 0l-1.765625 1.46875l2.234375 2.265625l0.515625 0q0.171875 0 0.234375 0.0625q0.078125 0.0625 0.078125 0.171875q0 0.09375 -0.078125 0.15625q-0.0625 0.0625 -0.234375 0.0625l-1.46875 0q-0.15625 0 -0.234375 -0.0625q-0.0625 -0.0625 -0.0625 -0.15625q0 -0.109375 0.0625 -0.171875q0.078125 -0.0625 0.234375 -0.0625l0.328125 0l-1.9375 -1.984375l-0.515625 0.421875zm9.069824 2.015625l-0.5625 0l-1.0 -2.890625l-0.984375 2.890625l-0.5625 0l-0.921875 -4.1875l-0.21875 0q-0.171875 0 -0.25 -0.0625q-0.0625 -0.078125 -0.0625 -0.171875q0 -0.09375 0.0625 -0.15625q0.078125 -0.078125 0.25 -0.078125l1.234375 0q0.15625 0 0.21875 0.078125q0.078125 0.0625 0.078125 0.15625q0 0.09375 -0.078125 0.171875q-0.0625 0.0625 -0.21875 0.0625l-0.578125 0l0.796875 3.5625l0.96875 -2.84375l0.53125 0l1.0 2.84375l0.765625 -3.5625l-0.578125 0q-0.15625 0 -0.234375 -0.0625q-0.0625 -0.078125 -0.0625 -0.171875q0 -0.09375 0.0625 -0.15625q0.078125 -0.078125 0.234375 -0.078125l1.234375 0q0.171875 0 0.234375 0.078125q0.078125 0.0625 0.078125 0.15625q0 0.09375 -0.078125 0.171875q-0.0625 0.0625 -0.234375 0.0625l-0.203125 0l-0.921875 4.1875zm6.335449 0l0 -0.65625q-0.984375 0.828125 -2.09375 0.828125q-0.8125 0 -1.265625 -0.40625q-0.453125 -0.40625 -0.453125 -1.0q0 -0.65625 0.59375 -1.140625q0.609375 -0.5 1.75 -0.5q0.3125 0 0.671875 0.046875q0.375 0.03125 0.796875 0.125l0 -0.734375q0 -0.375 -0.34375 -0.640625q-0.34375 -0.28125 -1.03125 -0.28125q-0.515625 0 -1.46875 0.3125q-0.171875 0.046875 -0.21875 0.046875q-0.09375 0 -0.15625 -0.0625q-0.0625 -0.0625 -0.0625 -0.15625q0 -0.09375 0.0625 -0.140625q0.0625 -0.09375 0.609375 -0.234375q0.828125 -0.21875 1.265625 -0.21875q0.84375 0 1.3125 0.421875q0.484375 0.421875 0.484375 0.953125l0 2.984375l0.609375 0q0.171875 0 0.234375 0.0625q0.078125 0.0625 0.078125 0.171875q0 0.09375 -0.078125 0.15625q-0.0625 0.0625 -0.234375 0.0625l-1.0625 0zm0 -2.25q-0.3125 -0.09375 -0.671875 -0.125q-0.34375 -0.046875 -0.734375 -0.046875q-0.984375 0 -1.546875 0.421875q-0.421875 0.3125 -0.421875 0.765625q0 0.40625 0.3125 0.6875q0.328125 0.265625 0.9375 0.265625q0.59375 0 1.09375 -0.21875q0.5 -0.234375 1.03125 -0.75l0 -1.0zm4.772949 -2.40625l0 1.140625q0.875 -0.796875 1.3125 -1.015625q0.4375 -0.234375 0.8125 -0.234375q0.40625 0 0.75 0.28125q0.34375 0.265625 0.34375 0.40625q0 0.09375 -0.078125 0.171875q-0.0625 0.0625 -0.15625 0.0625q-0.0625 0 -0.09375 -0.015625q-0.03125 -0.03125 -0.140625 -0.125q-0.1875 -0.1875 -0.328125 -0.25q-0.140625 -0.078125 -0.265625 -0.078125q-0.296875 0 -0.71875 0.234375q-0.421875 0.234375 -1.4375 1.15625l0 2.46875l2.0 0q0.15625 0 0.21875 0.0625q0.078125 0.0625 0.078125 0.171875q0 0.09375 -0.078125 0.15625q-0.0625 0.0625 -0.21875 0.0625l-3.546875 0q-0.15625 0 -0.234375 -0.0625q-0.0625 -0.0625 -0.0625 -0.15625q0 -0.09375 0.0625 -0.15625q0.0625 -0.0625 0.234375 -0.0625l1.09375 0l0 -3.75l-0.828125 0q-0.171875 0 -0.25 -0.0625q-0.0625 -0.078125 -0.0625 -0.171875q0 -0.09375 0.0625 -0.15625q0.078125 -0.078125 0.25 -0.078125l1.28125 0zm8.647949 0.828125l0 -0.828125l1.0625 0q0.15625 0 0.21875 0.078125q0.078125 0.0625 0.078125 0.15625q0 0.09375 -0.078125 0.171875q-0.0625 0.0625 -0.21875 0.0625l-0.609375 0l0 4.5q0 0.453125 -0.1875 0.8125q-0.125 0.234375 -0.4375 0.484375q-0.296875 0.25 -0.546875 0.359375q-0.25 0.109375 -0.65625 0.109375l-1.28125 0q-0.15625 0 -0.234375 -0.0625q-0.0625 -0.0625 -0.0625 -0.171875q0 -0.09375 0.0625 -0.171875q0.078125 -0.0625 0.234375 -0.0625l1.296875 0.015625q0.390625 0 0.703125 -0.203125q0.328125 -0.203125 0.546875 -0.59375q0.109375 -0.234375 0.109375 -0.578125l0 -1.359375q-0.71875 1.0 -1.859375 1.0q-0.9375 0 -1.609375 -0.6875q-0.671875 -0.703125 -0.671875 -1.671875q0 -0.96875 0.671875 -1.65625q0.671875 -0.6875 1.609375 -0.6875q1.140625 0 1.859375 0.984375zm0 1.359375q0 -0.796875 -0.546875 -1.34375q-0.53125 -0.546875 -1.296875 -0.546875q-0.75 0 -1.296875 0.5625q-0.546875 0.546875 -0.546875 1.328125q0 0.796875 0.546875 1.359375q0.546875 0.546875 1.296875 0.546875q0.765625 0 1.296875 -0.546875q0.546875 -0.5625 0.546875 -1.359375zm6.5854187 -1.890625q0 -0.15625 0.0625 -0.21875q0.0625 -0.078125 0.15625 -0.078125q0.109375 0 0.171875 0.078125q0.0625 0.0625 0.0625 0.234375l0 0.765625q0 0.171875 -0.0625 0.25q-0.0625 0.0625 -0.171875 0.0625q-0.09375 0 -0.15625 -0.0625q-0.0625 -0.0625 -0.0625 -0.203125q-0.03125 -0.3125 -0.34375 -0.53125q-0.4375 -0.296875 -1.15625 -0.296875q-0.7655945 0 -1.1874695 0.3125q-0.3125 0.234375 -0.3125 0.515625q0 0.3125 0.375 0.53125q0.265625 0.15625 0.9843445 0.234375q0.9375 0.09375 1.296875 0.234375q0.53125 0.1875 0.78125 0.515625q0.25 0.328125 0.25 0.71875q0 0.578125 -0.546875 1.03125q-0.546875 0.4375 -1.625 0.4375q-1.0624695 0 -1.7499695 -0.53125q0 0.171875 -0.03125 0.234375q-0.015625 0.046875 -0.078125 0.09375q-0.046875 0.03125 -0.109375 0.03125q-0.109375 0 -0.171875 -0.0625q-0.0625 -0.078125 -0.0625 -0.234375l0 -0.9375q0 -0.15625 0.0625 -0.21875q0.0625 -0.078125 0.171875 -0.078125q0.09375 0 0.15625 0.078125q0.0625 0.0625 0.0625 0.171875q0 0.25 0.125 0.40625q0.1875 0.265625 0.59375 0.4375q0.42184448 0.15625 1.0155945 0.15625q0.875 0 1.296875 -0.3125q0.4375 -0.328125 0.4375 -0.703125q0 -0.421875 -0.421875 -0.671875q-0.453125 -0.25 -1.296875 -0.328125q-0.8280945 -0.09375 -1.2030945 -0.234375q-0.359375 -0.140625 -0.5625 -0.421875q-0.203125 -0.28125 -0.203125 -0.59375q0 -0.578125 0.5625 -0.921875q0.578125 -0.34375 1.3593445 -0.34375q0.9375 0 1.53125 0.453125z" fill-rule="nonzero"></path><path fill="#000000" fill-opacity="0.0" d="m565.53546 124.56693l387.81097 0l0 47.37008l-387.81097 0z" fill-rule="evenodd"></path><path fill="#000000" d="m580.76984 147.2838l3.578125 3.421875q0.34375 0 0.4375 0.03125q0.09375 0.03125 0.15625 0.140625q0.078125 0.09375 0.078125 0.21875q0 0.171875 -0.125 0.28125q-0.109375 0.109375 -0.40625 0.109375l-2.5 0q-0.296875 0 -0.421875 -0.109375q-0.109375 -0.109375 -0.109375 -0.28125q0 -0.171875 0.109375 -0.28125q0.125 -0.109375 0.421875 -0.109375l1.28125 0l-3.03125 -2.90625l-3.015625 2.90625l1.296875 0q0.28125 0 0.40625 0.109375q0.125 0.109375 0.125 0.28125q0 0.171875 -0.125 0.28125q-0.125 0.109375 -0.40625 0.109375l-2.53125 0q-0.28125 0 -0.40625 -0.109375q-0.109375 -0.109375 -0.109375 -0.28125q0 -0.125 0.0625 -0.21875q0.078125 -0.109375 0.15625 -0.140625q0.09375 -0.03125 0.453125 -0.03125l3.5625 -3.421875l-3.171875 -3.046875q-0.328125 0 -0.421875 -0.03125q-0.078125 -0.03125 -0.15625 -0.140625q-0.0625 -0.109375 -0.0625 -0.21875q0 -0.171875 0.109375 -0.28125q0.125 -0.109375 0.421875 -0.109375l2.125 0q0.28125 0 0.390625 0.109375q0.125 0.109375 0.125 0.28125q0 0.171875 -0.125 0.28125q-0.109375 0.109375 -0.390625 0.109375l-0.9375 0l2.625 2.53125l2.640625 -2.53125l-0.921875 0q-0.28125 0 -0.40625 -0.109375q-0.125 -0.109375 -0.125 -0.28125q0 -0.171875 0.125 -0.28125q0.125 -0.109375 0.40625 -0.109375l2.125 0q0.28125 0 0.390625 0.109375q0.125 0.109375 0.125 0.28125q0 0.109375 -0.078125 0.21875q-0.0625 0.109375 -0.15625 0.140625q-0.078125 0.03125 -0.40625 0.03125l-3.1875 3.046875zm26.52246 -2.25l-8.5 0q-0.28125 0 -0.40625 -0.109375q-0.109375 -0.109375 -0.109375 -0.28125q0 -0.171875 0.109375 -0.28125q0.125 -0.109375 0.40625 -0.109375l8.5 0q0.28125 0 0.390625 0.109375q0.125 0.109375 0.125 0.28125q0 0.171875 -0.125 0.28125q-0.109375 0.109375 -0.390625 0.109375zm0 2.796875l-8.5 0q-0.28125 0 -0.40625 -0.109375q-0.109375 -0.109375 -0.109375 -0.28125q0 -0.171875 0.109375 -0.28125q0.125 -0.109375 0.40625 -0.109375l8.5 0q0.28125 0 0.390625 0.109375q0.125 0.109375 0.125 0.28125q0 0.171875 -0.125 0.28125q-0.109375 0.109375 -0.390625 0.109375zm18.381836 1.421875l0.34375 0q0.515625 0 0.890625 0.375q0.375 0.359375 0.375 0.875q0 0.53125 -0.375 0.90625q-0.375 0.359375 -0.890625 0.359375l-0.34375 0q-0.515625 0 -0.890625 -0.359375q-0.359375 -0.375 -0.359375 -0.890625q0 -0.546875 0.375 -0.90625q0.375 -0.359375 0.875 -0.359375zm11.401855 0l0.34375 0q0.515625 0 0.890625 0.375q0.375 0.359375 0.375 0.875q0 0.53125 -0.375 0.90625q-0.375 0.359375 -0.890625 0.359375l-0.34375 0q-0.515625 0 -0.890625 -0.359375q-0.359375 -0.375 -0.359375 -0.890625q0 -0.546875 0.375 -0.90625q0.375 -0.359375 0.875 -0.359375zm11.401855 0l0.34375 0q0.515625 0 0.890625 0.375q0.375 0.359375 0.375 0.875q0 0.53125 -0.375 0.90625q-0.375 0.359375 -0.890625 0.359375l-0.34375 0q-0.515625 0 -0.890625 -0.359375q-0.359375 -0.375 -0.359375 -0.890625q0 -0.546875 0.375 -0.90625q0.375 -0.359375 0.875 -0.359375z" fill-rule="nonzero"></path><path fill="#000000" fill-opacity="0.0" d="m565.53546 248.40932l387.81097 0l0 43.181107l-387.81097 0z" fill-rule="evenodd"></path><path fill="#000000" d="m580.28546 275.3293l-3.609375 -7.25l-0.234375 0q-0.28125 0 -0.40625 -0.109375q-0.125 -0.109375 -0.125 -0.28125q0 -0.109375 0.0625 -0.203125q0.0625 -0.109375 0.15625 -0.140625q0.109375 -0.046875 0.3125 -0.046875l2.125 0q0.28125 0 0.40625 0.109375q0.125 0.109375 0.125 0.28125q0 0.171875 -0.125 0.28125q-0.125 0.109375 -0.40625 0.109375l-1.046875 0l3.1875 6.390625l3.140625 -6.390625l-1.0625 0q-0.265625 0 -0.390625 -0.109375q-0.125 -0.109375 -0.125 -0.28125q0 -0.171875 0.125 -0.28125q0.125 -0.109375 0.390625 -0.109375l2.125 0q0.296875 0 0.40625 0.109375q0.125 0.109375 0.125 0.28125q0 0.125 -0.078125 0.234375q-0.0625 0.09375 -0.15625 0.125q-0.09375 0.03125 -0.515625 0.03125l-4.9375 10.046875l1.203125 0q0.28125 0 0.40625 0.109375q0.125 0.109375 0.125 0.28125q0 0.171875 -0.125 0.28125q-0.125 0.109375 -0.40625 0.109375l-4.484375 0q-0.28125 0 -0.40625 -0.109375q-0.109375 -0.09375 -0.109375 -0.28125q0 -0.171875 0.109375 -0.28125q0.125 -0.109375 0.40625 -0.109375l2.4375 0l1.375 -2.796875zm27.006836 -6.453125l-8.5 0q-0.28125 0 -0.40625 -0.109375q-0.109375 -0.109375 -0.109375 -0.28125q0 -0.171875 0.109375 -0.28125q0.125 -0.109375 0.40625 -0.109375l8.5 0q0.28125 0 0.390625 0.109375q0.125 0.109375 0.125 0.28125q0 0.171875 -0.125 0.28125q-0.109375 0.109375 -0.390625 0.109375zm0 2.796875l-8.5 0q-0.28125 0 -0.40625 -0.109375q-0.109375 -0.109375 -0.109375 -0.28125q0 -0.171875 0.109375 -0.28125q0.125 -0.109375 0.40625 -0.109375l8.5 0q0.28125 0 0.390625 0.109375q0.125 0.109375 0.125 0.28125q0 0.171875 -0.125 0.28125q-0.109375 0.109375 -0.390625 0.109375zm20.788086 3.65625l0 -1.125q-1.6875 1.4375 -3.625 1.4375q-1.40625 0 -2.1875 -0.703125q-0.78125 -0.71875 -0.78125 -1.75q0 -1.140625 1.03125 -1.984375q1.046875 -0.84375 3.03125 -0.84375q0.546875 0 1.171875 0.078125q0.625 0.0625 1.359375 0.21875l0 -1.265625q0 -0.640625 -0.59375 -1.109375q-0.59375 -0.484375 -1.78125 -0.484375q-0.90625 0 -2.546875 0.53125q-0.296875 0.09375 -0.375 0.09375q-0.15625 0 -0.265625 -0.109375q-0.109375 -0.109375 -0.109375 -0.28125q0 -0.15625 0.09375 -0.25q0.140625 -0.140625 1.0625 -0.375q1.4375 -0.390625 2.1875 -0.390625q1.46875 0 2.296875 0.734375q0.828125 0.71875 0.828125 1.640625l0 5.15625l1.03125 0q0.296875 0 0.40625 0.109375q0.125 0.109375 0.125 0.28125q0 0.171875 -0.125 0.28125q-0.109375 0.109375 -0.40625 0.109375l-1.828125 0zm0 -3.875q-0.546875 -0.15625 -1.15625 -0.234375q-0.609375 -0.078125 -1.28125 -0.078125q-1.703125 0 -2.65625 0.734375q-0.734375 0.546875 -0.734375 1.3125q0 0.703125 0.546875 1.1875q0.5625 0.484375 1.625 0.484375q1.0 0 1.859375 -0.40625q0.875 -0.40625 1.796875 -1.28125l0 -1.71875zm6.6518555 -4.15625l0 1.171875q0.8125 -0.828125 1.46875 -1.140625q0.65625 -0.3125 1.484375 -0.3125q0.890625 0 1.625 0.375q0.515625 0.28125 0.9375 0.9375q0.421875 0.640625 0.421875 1.3125l0 4.90625l0.65625 0q0.28125 0 0.40625 0.109375q0.125 0.109375 0.125 0.28125q0 0.171875 -0.125 0.28125q-0.125 0.109375 -0.40625 0.109375l-2.078125 0q-0.296875 0 -0.421875 -0.109375q-0.109375 -0.109375 -0.109375 -0.28125q0 -0.171875 0.109375 -0.28125q0.125 -0.109375 0.421875 -0.109375l0.640625 0l0 -4.78125q0 -0.828125 -0.609375 -1.390625q-0.59375 -0.578125 -1.609375 -0.578125q-0.765625 0 -1.328125 0.3125q-0.5625 0.3125 -1.609375 1.546875l0 4.890625l0.875 0q0.28125 0 0.390625 0.109375q0.125 0.109375 0.125 0.28125q0 0.171875 -0.125 0.28125q-0.109375 0.109375 -0.390625 0.109375l-2.546875 0q-0.265625 0 -0.390625 -0.109375q-0.125 -0.109375 -0.125 -0.28125q0 -0.171875 0.125 -0.28125q0.125 -0.109375 0.390625 -0.109375l0.890625 0l0 -6.46875l-0.65625 0q-0.28125 0 -0.40625 -0.109375q-0.125 -0.109375 -0.125 -0.28125q0 -0.171875 0.125 -0.28125q0.125 -0.109375 0.40625 -0.109375l1.4375 0zm10.97998 0l0 1.421875q0.6875 -0.84375 1.484375 -1.265625q0.8125 -0.4375 1.890625 -0.4375q1.15625 0 2.125 0.546875q0.96875 0.53125 1.5 1.5q0.546875 0.953125 0.546875 2.0q0 1.6875 -1.203125 2.890625q-1.203125 1.1875 -2.953125 1.1875q-2.09375 0 -3.390625 -1.703125l0 4.6875l1.890625 0q0.28125 0 0.390625 0.109375q0.125 0.109375 0.125 0.28125q0 0.171875 -0.125 0.28125q-0.109375 0.109375 -0.390625 0.109375l-3.71875 0q-0.28125 0 -0.40625 -0.109375q-0.109375 -0.09375 -0.109375 -0.28125q0 -0.171875 0.109375 -0.28125q0.125 -0.109375 0.40625 -0.109375l1.046875 0l0 -10.046875l-1.046875 0q-0.28125 0 -0.40625 -0.109375q-0.109375 -0.109375 -0.109375 -0.28125q0 -0.171875 0.109375 -0.28125q0.125 -0.109375 0.40625 -0.109375l1.828125 0zm6.75 3.765625q0 -1.34375 -0.984375 -2.296875q-0.96875 -0.96875 -2.375 -0.96875q-1.421875 0 -2.40625 0.96875q-0.984375 0.96875 -0.984375 2.296875q0 1.359375 0.984375 2.328125q0.984375 0.953125 2.40625 0.953125q1.390625 0 2.375 -0.953125q0.984375 -0.96875 0.984375 -2.328125zm7.4174805 2.03125l0.34375 0q0.515625 0 0.890625 0.375q0.375 0.359375 0.375 0.875q0 0.53125 -0.375 0.90625q-0.375 0.359375 -0.890625 0.359375l-0.34375 0q-0.515625 0 -0.890625 -0.359375q-0.359375 -0.375 -0.359375 -0.890625q0 -0.546875 0.375 -0.90625q0.375 -0.359375 0.875 -0.359375zm9.964355 -5.796875l4.234375 0q0.28125 0 0.390625 0.109375q0.125 0.109375 0.125 0.28125q0 0.171875 -0.125 0.28125q-0.109375 0.109375 -0.390625 0.109375l-4.234375 0l0 5.1875q0 0.6875 0.546875 1.140625q0.546875 0.453125 1.59375 0.453125q0.78125 0 1.703125 -0.234375q0.921875 -0.25 1.4375 -0.546875q0.1875 -0.109375 0.296875 -0.109375q0.15625 0 0.265625 0.125q0.109375 0.109375 0.109375 0.265625q0 0.140625 -0.125 0.25q-0.296875 0.3125 -1.4375 0.671875q-1.140625 0.359375 -2.1875 0.359375q-1.375 0 -2.1875 -0.640625q-0.796875 -0.640625 -0.796875 -1.734375l0 -5.1875l-1.4375 0q-0.28125 0 -0.40625 -0.109375q-0.109375 -0.109375 -0.109375 -0.28125q0 -0.171875 0.109375 -0.28125q0.125 -0.109375 0.40625 -0.109375l1.4375 0l0 -2.296875q0 -0.28125 0.109375 -0.40625q0.109375 -0.125 0.28125 -0.125q0.171875 0 0.28125 0.125q0.109375 0.125 0.109375 0.40625l0 2.296875zm12.07373 0l0 1.96875q1.53125 -1.375 2.28125 -1.765625q0.75 -0.40625 1.390625 -0.40625q0.703125 0 1.296875 0.46875q0.59375 0.46875 0.59375 0.71875q0 0.171875 -0.109375 0.296875q-0.109375 0.109375 -0.296875 0.109375q-0.09375 0 -0.15625 -0.03125q-0.0625 -0.03125 -0.234375 -0.21875q-0.328125 -0.3125 -0.578125 -0.4375q-0.234375 -0.125 -0.46875 -0.125q-0.5 0 -1.21875 0.40625q-0.71875 0.40625 -2.5 2.0l0 4.265625l3.453125 0q0.28125 0 0.40625 0.109375q0.125 0.109375 0.125 0.28125q0 0.171875 -0.125 0.28125q-0.125 0.109375 -0.40625 0.109375l-6.109375 0q-0.28125 0 -0.40625 -0.109375q-0.109375 -0.109375 -0.109375 -0.265625q0 -0.15625 0.109375 -0.265625q0.109375 -0.109375 0.40625 -0.109375l1.875 0l0 -6.5l-1.4375 0q-0.28125 0 -0.40625 -0.109375q-0.109375 -0.109375 -0.109375 -0.28125q0 -0.171875 0.109375 -0.28125q0.125 -0.109375 0.40625 -0.109375l2.21875 0zm14.57373 8.03125l0 -1.125q-1.6875 1.4375 -3.625 1.4375q-1.40625 0 -2.1875 -0.703125q-0.78125 -0.71875 -0.78125 -1.75q0 -1.140625 1.03125 -1.984375q1.046875 -0.84375 3.03125 -0.84375q0.546875 0 1.171875 0.078125q0.625 0.0625 1.359375 0.21875l0 -1.265625q0 -0.640625 -0.59375 -1.109375q-0.59375 -0.484375 -1.78125 -0.484375q-0.90625 0 -2.546875 0.53125q-0.296875 0.09375 -0.375 0.09375q-0.15625 0 -0.265625 -0.109375q-0.109375 -0.109375 -0.109375 -0.28125q0 -0.15625 0.09375 -0.25q0.140625 -0.140625 1.0625 -0.375q1.4375 -0.390625 2.1875 -0.390625q1.46875 0 2.296875 0.734375q0.828125 0.71875 0.828125 1.640625l0 5.15625l1.03125 0q0.296875 0 0.40625 0.109375q0.125 0.109375 0.125 0.28125q0 0.171875 -0.125 0.28125q-0.109375 0.109375 -0.40625 0.109375l-1.828125 0zm0 -3.875q-0.546875 -0.15625 -1.15625 -0.234375q-0.609375 -0.078125 -1.28125 -0.078125q-1.703125 0 -2.65625 0.734375q-0.734375 0.546875 -0.734375 1.3125q0 0.703125 0.546875 1.1875q0.5625 0.484375 1.625 0.484375q1.0 0 1.859375 -0.40625q0.875 -0.40625 1.796875 -1.28125l0 -1.71875zm6.6518555 -4.15625l0 1.171875q0.8125 -0.828125 1.46875 -1.140625q0.65625 -0.3125 1.484375 -0.3125q0.890625 0 1.625 0.375q0.515625 0.28125 0.9375 0.9375q0.421875 0.640625 0.421875 1.3125l0 4.90625l0.65625 0q0.28125 0 0.40625 0.109375q0.125 0.109375 0.125 0.28125q0 0.171875 -0.125 0.28125q-0.125 0.109375 -0.40625 0.109375l-2.078125 0q-0.296875 0 -0.421875 -0.109375q-0.109375 -0.109375 -0.109375 -0.28125q0 -0.171875 0.109375 -0.28125q0.125 -0.109375 0.421875 -0.109375l0.640625 0l0 -4.78125q0 -0.828125 -0.609375 -1.390625q-0.59375 -0.578125 -1.609375 -0.578125q-0.765625 0 -1.328125 0.3125q-0.5625 0.3125 -1.609375 1.546875l0 4.890625l0.875 0q0.28125 0 0.390625 0.109375q0.125 0.109375 0.125 0.28125q0 0.171875 -0.125 0.28125q-0.109375 0.109375 -0.390625 0.109375l-2.546875 0q-0.265625 0 -0.390625 -0.109375q-0.125 -0.109375 -0.125 -0.28125q0 -0.171875 0.125 -0.28125q0.125 -0.109375 0.390625 -0.109375l0.890625 0l0 -6.46875l-0.65625 0q-0.28125 0 -0.40625 -0.109375q-0.125 -0.109375 -0.125 -0.28125q0 -0.171875 0.125 -0.28125q0.125 -0.109375 0.40625 -0.109375l1.4375 0zm16.495605 0.5q0 -0.265625 0.109375 -0.375q0.109375 -0.125 0.28125 -0.125q0.171875 0 0.28125 0.125q0.109375 0.109375 0.109375 0.40625l0 1.328125q0 0.28125 -0.109375 0.40625q-0.109375 0.109375 -0.28125 0.109375q-0.171875 0 -0.28125 -0.09375q-0.09375 -0.109375 -0.109375 -0.34375q-0.0625 -0.546875 -0.578125 -0.90625q-0.765625 -0.53125 -2.015625 -0.53125q-1.3125 0 -2.03125 0.53125q-0.546875 0.40625 -0.546875 0.890625q0 0.5625 0.640625 0.9375q0.453125 0.25 1.703125 0.390625q1.609375 0.171875 2.25 0.40625q0.890625 0.328125 1.328125 0.90625q0.453125 0.5625 0.453125 1.234375q0 0.984375 -0.953125 1.765625q-0.953125 0.78125 -2.8125 0.78125q-1.84375 0 -3.015625 -0.9375q0 0.3125 -0.046875 0.40625q-0.03125 0.09375 -0.125 0.15625q-0.09375 0.0625 -0.21875 0.0625q-0.171875 0 -0.28125 -0.109375q-0.109375 -0.125 -0.109375 -0.40625l0 -1.609375q0 -0.28125 0.109375 -0.390625q0.109375 -0.125 0.28125 -0.125q0.171875 0 0.28125 0.125q0.109375 0.109375 0.109375 0.296875q0 0.421875 0.21875 0.71875q0.328125 0.4375 1.03125 0.734375q0.71875 0.296875 1.75 0.296875q1.515625 0 2.25 -0.5625q0.75 -0.578125 0.75 -1.203125q0 -0.71875 -0.75 -1.15625q-0.765625 -0.4375 -2.21875 -0.578125q-1.453125 -0.15625 -2.078125 -0.390625q-0.625 -0.25 -0.984375 -0.734375q-0.359375 -0.484375 -0.359375 -1.03125q0 -1.015625 0.984375 -1.59375q0.984375 -0.59375 2.359375 -0.59375q1.609375 0 2.625 0.78125zm5.8862305 -0.5l0 1.421875q0.6875 -0.84375 1.484375 -1.265625q0.8125 -0.4375 1.890625 -0.4375q1.15625 0 2.125 0.546875q0.96875 0.53125 1.5 1.5q0.546875 0.953125 0.546875 2.0q0 1.6875 -1.203125 2.890625q-1.203125 1.1875 -2.953125 1.1875q-2.09375 0 -3.390625 -1.703125l0 4.6875l1.890625 0q0.28125 0 0.390625 0.109375q0.125 0.109375 0.125 0.28125q0 0.171875 -0.125 0.28125q-0.109375 0.109375 -0.390625 0.109375l-3.71875 0q-0.28125 0 -0.40625 -0.109375q-0.109375 -0.09375 -0.109375 -0.28125q0 -0.171875 0.109375 -0.28125q0.125 -0.109375 0.40625 -0.109375l1.046875 0l0 -10.046875l-1.046875 0q-0.28125 0 -0.40625 -0.109375q-0.109375 -0.109375 -0.109375 -0.28125q0 -0.171875 0.109375 -0.28125q0.125 -0.109375 0.40625 -0.109375l1.828125 0zm6.75 3.765625q0 -1.34375 -0.984375 -2.296875q-0.96875 -0.96875 -2.375 -0.96875q-1.421875 0 -2.40625 0.96875q-0.984375 0.96875 -0.984375 2.296875q0 1.359375 0.984375 2.328125q0.984375 0.953125 2.40625 0.953125q1.390625 0 2.375 -0.953125q0.984375 -0.96875 0.984375 -2.328125zm11.94873 0.265625q0 1.78125 -1.28125 3.046875q-1.28125 1.265625 -3.078125 1.265625q-1.8125 0 -3.09375 -1.265625q-1.265625 -1.28125 -1.265625 -3.046875q0 -1.78125 1.265625 -3.046875q1.28125 -1.265625 3.09375 -1.265625q1.796875 0 3.078125 1.265625q1.28125 1.25 1.28125 3.046875zm-0.796875 0q0 -1.46875 -1.046875 -2.5q-1.03125 -1.03125 -2.515625 -1.03125q-1.484375 0 -2.53125 1.046875q-1.046875 1.03125 -1.046875 2.484375q0 1.453125 1.046875 2.5q1.046875 1.03125 2.53125 1.03125q1.484375 0 2.515625 -1.03125q1.046875 -1.046875 1.046875 -2.5zm10.41748 -3.53125q0 -0.265625 0.109375 -0.375q0.109375 -0.125 0.28125 -0.125q0.171875 0 0.28125 0.125q0.109375 0.109375 0.109375 0.40625l0 1.328125q0 0.28125 -0.109375 0.40625q-0.109375 0.109375 -0.28125 0.109375q-0.171875 0 -0.28125 -0.09375q-0.09375 -0.109375 -0.109375 -0.34375q-0.0625 -0.546875 -0.578125 -0.90625q-0.765625 -0.53125 -2.015625 -0.53125q-1.3125 0 -2.03125 0.53125q-0.546875 0.40625 -0.546875 0.890625q0 0.5625 0.640625 0.9375q0.453125 0.25 1.703125 0.390625q1.609375 0.171875 2.25 0.40625q0.890625 0.328125 1.328125 0.90625q0.453125 0.5625 0.453125 1.234375q0 0.984375 -0.953125 1.765625q-0.953125 0.78125 -2.8125 0.78125q-1.84375 0 -3.015625 -0.9375q0 0.3125 -0.046875 0.40625q-0.03125 0.09375 -0.125 0.15625q-0.09375 0.0625 -0.21875 0.0625q-0.171875 0 -0.28125 -0.109375q-0.109375 -0.125 -0.109375 -0.40625l0 -1.609375q0 -0.28125 0.109375 -0.390625q0.109375 -0.125 0.28125 -0.125q0.171875 0 0.28125 0.125q0.109375 0.109375 0.109375 0.296875q0 0.421875 0.21875 0.71875q0.328125 0.4375 1.03125 0.734375q0.71875 0.296875 1.75 0.296875q1.515625 0 2.25 -0.5625q0.75 -0.578125 0.75 -1.203125q0 -0.71875 -0.75 -1.15625q-0.765625 -0.4375 -2.21875 -0.578125q-1.453125 -0.15625 -2.078125 -0.390625q-0.625 -0.25 -0.984375 -0.734375q-0.359375 -0.484375 -0.359375 -1.03125q0 -1.015625 0.984375 -1.59375q0.984375 -0.59375 2.359375 -0.59375q1.609375 0 2.625 0.78125zm13.04248 3.703125l-7.953125 0q0.21875 1.515625 1.28125 2.4375q1.0625 0.921875 2.625 0.921875q0.875 0 1.828125 -0.28125q0.953125 -0.296875 1.5625 -0.765625q0.171875 -0.140625 0.296875 -0.140625q0.15625 0 0.265625 0.125q0.109375 0.109375 0.109375 0.265625q0 0.15625 -0.15625 0.296875q-0.4375 0.46875 -1.578125 0.875q-1.140625 0.40625 -2.328125 0.40625q-2.0 0 -3.34375 -1.3125q-1.34375 -1.3125 -1.34375 -3.1875q0 -1.6875 1.25 -2.90625q1.265625 -1.21875 3.125 -1.21875q1.90625 0 3.140625 1.25q1.234375 1.25 1.21875 3.234375zm-0.796875 -0.796875q-0.234375 -1.28125 -1.21875 -2.09375q-0.984375 -0.8125 -2.34375 -0.8125q-1.375 0 -2.359375 0.8125q-0.96875 0.796875 -1.21875 2.09375l7.140625 0zm7.8862305 0q0 -1.0625 0.28125 -2.25q0.28125 -1.203125 1.0625 -2.765625q0.796875 -1.578125 1.15625 -1.90625q0.109375 -0.09375 0.234375 -0.09375q0.171875 0 0.28125 0.109375q0.125 0.109375 0.125 0.265625q0 0.09375 -0.0625 0.203125q-1.03125 1.875 -1.46875 3.40625q-0.421875 1.515625 -0.421875 3.03125q0 1.53125 0.421875 3.0625q0.4375 1.515625 1.46875 3.375q0.0625 0.125 0.0625 0.203125q0 0.171875 -0.125 0.28125q-0.109375 0.109375 -0.28125 0.109375q-0.125 0 -0.234375 -0.09375q-0.34375 -0.3125 -1.125 -1.84375q-0.78125 -1.53125 -1.078125 -2.703125q-0.296875 -1.1875 -0.296875 -2.390625zm12.026855 0.421875l3.578125 3.421875q0.34375 0 0.4375 0.03125q0.09375 0.03125 0.15625 0.140625q0.078125 0.09375 0.078125 0.21875q0 0.171875 -0.125 0.28125q-0.109375 0.109375 -0.40625 0.109375l-2.5 0q-0.296875 0 -0.421875 -0.109375q-0.109375 -0.109375 -0.109375 -0.28125q0 -0.171875 0.109375 -0.28125q0.125 -0.109375 0.421875 -0.109375l1.28125 0l-3.03125 -2.90625l-3.015625 2.90625l1.296875 0q0.28125 0 0.40625 0.109375q0.125 0.109375 0.125 0.28125q0 0.171875 -0.125 0.28125q-0.125 0.109375 -0.40625 0.109375l-2.53125 0q-0.28125 0 -0.40625 -0.109375q-0.109375 -0.109375 -0.109375 -0.28125q0 -0.125 0.0625 -0.21875q0.078125 -0.109375 0.15625 -0.140625q0.09375 -0.03125 0.453125 -0.03125l3.5625 -3.421875l-3.171875 -3.046875q-0.328125 0 -0.421875 -0.03125q-0.078125 -0.03125 -0.15625 -0.140625q-0.0625 -0.109375 -0.0625 -0.21875q0 -0.171875 0.109375 -0.28125q0.125 -0.109375 0.421875 -0.109375l2.125 0q0.28125 0 0.390625 0.109375q0.125 0.109375 0.125 0.28125q0 0.171875 -0.125 0.28125q-0.109375 0.109375 -0.390625 0.109375l-0.9375 0l2.625 2.53125l2.640625 -2.53125l-0.921875 0q-0.28125 0 -0.40625 -0.109375q-0.125 -0.109375 -0.125 -0.28125q0 -0.171875 0.125 -0.28125q0.125 -0.109375 0.40625 -0.109375l2.125 0q0.28125 0 0.390625 0.109375q0.125 0.109375 0.125 0.28125q0 0.109375 -0.078125 0.21875q-0.0625 0.109375 -0.15625 0.140625q-0.078125 0.03125 -0.40625 0.03125l-3.1875 3.046875zm9.32373 1.40625l2.53125 0l-2.75 5.109375q-0.25 0.46875 -0.609375 0.46875q-0.234375 0 -0.390625 -0.171875q-0.15625 -0.15625 -0.15625 -0.375q0 -0.09375 0.015625 -0.21875l1.359375 -4.8125zm24.74121 -8.0625l0 12.484375l1.890625 0q0.28125 0 0.390625 0.109375q0.125 0.109375 0.125 0.28125q0 0.171875 -0.125 0.28125q-0.109375 0.109375 -0.390625 0.109375l-2.671875 0l0 -14.046875l2.671875 0q0.28125 0 0.390625 0.109375q0.125 0.109375 0.125 0.28125q0 0.171875 -0.125 0.28125q-0.109375 0.109375 -0.390625 0.109375l-1.890625 0zm14.589355 4.078125l0 1.921875q0 2.515625 -1.203125 3.984375q-0.9375 1.15625 -2.359375 1.15625q-0.6875 0 -1.296875 -0.28125q-0.609375 -0.265625 -1.03125 -0.765625q-0.265625 -0.296875 -0.59375 -0.96875q-0.3125 -0.6875 -0.453125 -1.25q-0.21875 -0.796875 -0.21875 -1.875l0 -1.921875q0 -2.53125 1.203125 -3.984375q0.9375 -1.15625 2.359375 -1.15625q0.703125 0 1.296875 0.28125q0.609375 0.265625 1.03125 0.765625q0.28125 0.3125 0.59375 0.984375q0.3125 0.671875 0.46875 1.234375q0.203125 0.796875 0.203125 1.875zm-0.78125 0.09375q0 -1.09375 -0.3125 -2.046875q-0.3125 -0.953125 -0.703125 -1.515625q-0.234375 -0.328125 -0.59375 -0.5625q-0.53125 -0.328125 -1.1875 -0.328125q-1.3125 0 -2.0625 1.34375q-0.734375 1.328125 -0.734375 3.109375l0 1.71875q0 1.109375 0.3125 2.0625q0.3125 0.953125 0.703125 1.53125q0.21875 0.3125 0.59375 0.546875q0.53125 0.328125 1.203125 0.328125q1.296875 0 2.03125 -1.34375q0.75 -1.34375 0.75 -3.125l0 -1.71875zm7.0581055 3.890625l2.53125 0l-2.75 5.109375q-0.25 0.46875 -0.609375 0.46875q-0.234375 0 -0.390625 -0.171875q-0.15625 -0.15625 -0.15625 -0.375q0 -0.09375 0.015625 -0.21875l1.359375 -4.8125zm20.99121 2.015625l5.984375 0l0 -0.296875q0 -0.28125 0.109375 -0.40625q0.109375 -0.125 0.296875 -0.125q0.15625 0 0.265625 0.125q0.125 0.125 0.125 0.40625l0 1.078125l-7.53125 0l0 -1.15625q2.375 -2.125 4.609375 -4.34375q1.046875 -1.015625 1.4375 -1.5q0.390625 -0.484375 0.53125 -0.84375q0.15625 -0.375 0.15625 -0.75q0 -1.0 -0.8125 -1.765625q-0.8125 -0.78125 -1.953125 -0.78125q-1.015625 0 -1.8125 0.59375q-0.78125 0.578125 -1.015625 1.453125q-0.046875 0.21875 -0.140625 0.28125q-0.109375 0.09375 -0.25 0.09375q-0.15625 0 -0.265625 -0.109375q-0.109375 -0.109375 -0.109375 -0.25q0 -0.453125 0.484375 -1.203125q0.484375 -0.765625 1.34375 -1.203125q0.859375 -0.4375 1.765625 -0.4375q1.453125 0 2.5 1.015625q1.046875 1.0 1.046875 2.28125q0 0.546875 -0.171875 1.0q-0.171875 0.4375 -0.609375 0.984375q-0.421875 0.53125 -1.515625 1.609375q-2.734375 2.703125 -4.46875 4.203125l0 0.046875zm13.214355 -2.015625l2.53125 0l-2.75 5.109375q-0.25 0.46875 -0.609375 0.46875q-0.234375 0 -0.390625 -0.171875q-0.15625 -0.15625 -0.15625 -0.375q0 -0.09375 0.015625 -0.21875l1.359375 -4.8125zm24.74121 -9.0l0 11.015625l2.671875 0q0.265625 0 0.390625 0.109375q0.125 0.109375 0.125 0.28125q0 0.171875 -0.125 0.28125q-0.125 0.109375 -0.390625 0.109375l-6.125 0q-0.28125 0 -0.40625 -0.109375q-0.125 -0.109375 -0.125 -0.28125q0 -0.171875 0.125 -0.28125q0.125 -0.109375 0.40625 -0.109375l2.671875 0l0 -9.9375l-2.546875 0.796875q-0.1875 0.046875 -0.265625 0.046875q-0.140625 0 -0.265625 -0.109375q-0.109375 -0.125 -0.109375 -0.28125q0 -0.140625 0.09375 -0.25q0.078125 -0.078125 0.3125 -0.15625l3.5625 -1.125zm10.63623 13.421875l0 -12.484375l-1.875 0q-0.28125 0 -0.40625 -0.109375q-0.109375 -0.109375 -0.109375 -0.28125q0 -0.171875 0.109375 -0.28125q0.125 -0.109375 0.40625 -0.109375l2.671875 0l0 14.046875l-2.671875 0q-0.28125 0 -0.40625 -0.109375q-0.109375 -0.109375 -0.109375 -0.28125q0 -0.171875 0.109375 -0.28125q0.125 -0.109375 0.40625 -0.109375l1.875 0zm11.995605 -6.234375q0 1.0625 -0.28125 2.265625q-0.265625 1.1875 -1.0625 2.75q-0.78125 1.578125 -1.140625 1.890625q-0.109375 0.109375 -0.25 0.109375q-0.15625 0 -0.28125 -0.109375q-0.109375 -0.109375 -0.109375 -0.28125q0 -0.078125 0.0625 -0.203125q1.015625 -1.859375 1.453125 -3.375q0.4375 -1.53125 0.4375 -3.046875q0 -1.53125 -0.4375 -3.046875q-0.4375 -1.53125 -1.453125 -3.40625q-0.0625 -0.109375 -0.0625 -0.203125q0 -0.15625 0.109375 -0.265625q0.125 -0.109375 0.28125 -0.109375q0.140625 0 0.25 0.09375q0.34375 0.328125 1.109375 1.859375q0.78125 1.515625 1.078125 2.703125q0.296875 1.171875 0.296875 2.375z" fill-rule="nonzero"></path><path fill="#000000" fill-opacity="0.0" d="m762.3648 284.021c0 3.8964233 -0.5264282 7.0551147 -1.1757812 7.0551147l-69.490906 0c-0.64941406 0 -1.1757812 3.1586914 -1.1757812 7.0551147l0 0c0 -3.8964233 -0.5264282 -7.0551147 -1.1758423 -7.0551147l-69.490906 0l0 0c-0.649353 0 -1.1757812 -3.1586914 -1.1757812 -7.0551147z" fill-rule="evenodd"></path><path fill="#000000" fill-opacity="0.0" d="m762.3648 284.021c0 3.8964233 -0.5264282 7.0551147 -1.1757812 7.0551147l-69.490906 0c-0.64941406 0 -1.1757812 3.1586914 -1.1757812 7.0551147l0 0c0 -3.8964233 -0.5264282 -7.0551147 -1.1758423 -7.0551147l-69.490906 0l0 0c-0.649353 0 -1.1757812 -3.1586914 -1.1757812 -7.0551147" fill-rule="evenodd"></path><path stroke="#303030" stroke-width="1.0" stroke-linejoin="round" stroke-linecap="butt" d="m762.3648 284.021c0 3.8964233 -0.5264282 7.0551147 -1.1757812 7.0551147l-69.490906 0c-0.64941406 0 -1.1757812 3.1586914 -1.1757812 7.0551147l0 0c0 -3.8964233 -0.5264282 -7.0551147 -1.1758423 -7.0551147l-69.490906 0l0 0c-0.649353 0 -1.1757812 -3.1586914 -1.1757812 -7.0551147" fill-rule="evenodd"></path><path fill="#000000" fill-opacity="0.0" d="m915.3884 284.021c0 3.8964233 -0.5264282 7.0551147 -1.1757812 7.0551147l-69.490906 0c-0.649353 0 -1.1757812 3.1586914 -1.1757812 7.0551147l0 0c0 -3.8964233 -0.5264282 -7.0551147 -1.1758423 -7.0551147l-69.490906 0l0 0c-0.649353 0 -1.1757812 -3.1586914 -1.1757812 -7.0551147z" fill-rule="evenodd"></path><path fill="#000000" fill-opacity="0.0" d="m915.3884 284.021c0 3.8964233 -0.5264282 7.0551147 -1.1757812 7.0551147l-69.490906 0c-0.649353 0 -1.1757812 3.1586914 -1.1757812 7.0551147l0 0c0 -3.8964233 -0.5264282 -7.0551147 -1.1758423 -7.0551147l-69.490906 0l0 0c-0.649353 0 -1.1757812 -3.1586914 -1.1757812 -7.0551147" fill-rule="evenodd"></path><path stroke="#303030" stroke-width="1.0" stroke-linejoin="round" stroke-linecap="butt" d="m915.3884 284.021c0 3.8964233 -0.5264282 7.0551147 -1.1757812 7.0551147l-69.490906 0c-0.649353 0 -1.1757812 3.1586914 -1.1757812 7.0551147l0 0c0 -3.8964233 -0.5264282 -7.0551147 -1.1758423 -7.0551147l-69.490906 0l0 0c-0.649353 0 -1.1757812 -3.1586914 -1.1757812 -7.0551147" fill-rule="evenodd"></path><path fill="#000000" fill-opacity="0.0" d="m389.9685 305.43832c0 27.073486 75.14172 55.060364 150.28345 54.146973c75.14172 -0.9133911 150.28351 -30.72702 150.28351 -61.45407" fill-rule="evenodd"></path><path stroke="#303030" stroke-width="1.0" stroke-linejoin="round" stroke-linecap="butt" d="m389.9685 305.43832c0 27.073486 75.14172 55.060364 150.28345 54.146973c75.14172 -0.9133911 150.28351 -30.72702 150.28351 -61.45407" fill-rule="evenodd"></path><path fill="#000000" fill-opacity="0.0" d="m438.97375 305.43832c0 20.014435 101.14172 40.94226 202.28345 40.02887c101.14172 -0.9133911 202.28351 -23.667969 202.28351 -47.335968" fill-rule="evenodd"></path><path stroke="#303030" stroke-width="1.0" stroke-linejoin="round" stroke-linecap="butt" d="m438.97375 305.43832c0 20.014435 101.14172 40.94226 202.28345 40.02887c101.14172 -0.9133911 202.28351 -23.667969 202.28351 -47.335968" fill-rule="evenodd"></path><path fill="#000000" fill-opacity="0.0" d="m496.27823 305.43832c0 18.769012 86.81888 38.451416 173.63779 37.538025c86.81891 -0.9133911 173.63782 -22.422546 173.63782 -44.845123" fill-rule="evenodd"></path><path stroke="#303030" stroke-width="1.0" stroke-linejoin="round" stroke-linecap="butt" d="m496.27823 305.43832c0 18.769012 86.81888 38.451416 173.63779 37.538025c86.81891 -0.9133911 173.63782 -22.422546 173.63782 -44.845123" fill-rule="evenodd"></path><path fill="#000000" fill-opacity="0.0" d="m594.5906 160.1273c0 3.6615906 -0.49475098 6.6299133 -1.1049805 6.6299133l-10.65625 0c-0.6102295 0 -1.1049194 2.9683228 -1.1049194 6.6299286l0 0c0 -3.6616058 -0.49468994 -6.6299286 -1.1049805 -6.6299286l-10.65625 0l0 0c-0.6102295 0 -1.1049194 -2.9683228 -1.1049194 -6.6299133z" fill-rule="evenodd"></path><path fill="#000000" fill-opacity="0.0" d="m594.5906 160.1273c0 3.6615906 -0.49475098 6.6299133 -1.1049805 6.6299133l-10.65625 0c-0.6102295 0 -1.1049194 2.9683228 -1.1049194 6.6299286l0 0c0 -3.6616058 -0.49468994 -6.6299286 -1.1049805 -6.6299286l-10.65625 0l0 0c-0.6102295 0 -1.1049194 -2.9683228 -1.1049194 -6.6299133" fill-rule="evenodd"></path><path stroke="#303030" stroke-width="1.0" stroke-linejoin="round" stroke-linecap="butt" d="m594.5906 160.1273c0 3.6615906 -0.49475098 6.6299133 -1.1049805 6.6299133l-10.65625 0c-0.6102295 0 -1.1049194 2.9683228 -1.1049194 6.6299286l0 0c0 -3.6616058 -0.49468994 -6.6299286 -1.1049805 -6.6299286l-10.65625 0l0 0c-0.6102295 0 -1.1049194 -2.9683228 -1.1049194 -6.6299133" fill-rule="evenodd"></path><path fill="#000000" fill-opacity="0.0" d="m582.14435 174.3937c-3.5983887 4.2908936 13.70343 19.240158 -21.590515 25.745407c-35.294006 6.505249 -153.77167 5.120285 -190.17325 13.286087c-36.40158 8.165787 -23.530182 29.757217 -28.236237 35.708664" fill-rule="evenodd"></path><path stroke="#303030" stroke-width="1.0" stroke-linejoin="round" stroke-linecap="butt" d="m582.14435 174.3937c-3.5983887 4.2908936 13.70343 19.240158 -21.590515 25.745407c-35.294006 6.505249 -153.77167 5.120285 -190.17325 13.286087c-36.40158 8.165787 -23.530182 29.757217 -28.236237 35.708664" fill-rule="evenodd"></path><path fill="#000000" fill-opacity="0.0" d="m441.80054 248.30429c3.4601746 -4.1522217 -1.1071777 -19.100174 20.761139 -24.913376c21.868347 -5.813217 64.77426 -8.581802 110.44882 -9.965881c45.67456 -1.384079 128.99652 -5.951004 163.59845 1.6614227c34.60193 7.6124115 36.67755 36.677597 44.013123 44.013123" fill-rule="evenodd"></path><path stroke="#303030" stroke-width="1.0" stroke-linejoin="round" stroke-linecap="butt" d="m441.80054 248.30429c3.4601746 -4.1522217 -1.1071777 -19.100174 20.761139 -24.913376c21.868347 -5.813217 64.77426 -8.581802 110.44882 -9.965881c45.67456 -1.384079 128.99652 -5.951004 163.59845 1.6614227c34.60193 7.6124115 36.67755 36.677597 44.013123 44.013123" fill-rule="evenodd"></path></g></svg>

